<svg width="31" height="30" viewBox="0 0 31 30" fill="none" xmlns="http://www.w3.org/2000/svg">
<path d="M17.3865 22.4311H6.57492V20.3696C6.57492 20.1269 6.37816 19.9302 6.13546 19.9302C5.89277 19.9302 5.69601 20.1269 5.69601 20.3696V22.5363C5.69601 22.963 6.04306 23.31 6.46974 23.31H9.09397V26.0714C9.09397 26.112 9.06087 26.1451 9.02021 26.1451H6.82968V25.7101C6.82968 25.1756 6.39492 24.7408 5.86049 24.7408H4.11146C3.57703 24.7408 3.14221 25.1756 3.14221 25.7101V27.4591C3.14221 27.9935 3.57697 28.4283 4.11146 28.4283H5.86049C6.39492 28.4283 6.82968 27.9936 6.82968 27.4591V27.024H9.02021C9.5455 27.024 9.97288 26.5967 9.97288 26.0714V23.31H14.8558V26.3125H14.4207C13.8863 26.3125 13.4515 26.7472 13.4515 27.2817V29.0308C13.4515 29.5652 13.8862 30 14.4207 30H16.1697C16.7042 30 17.139 29.5652 17.139 29.0308V27.2817C17.139 26.7473 16.7042 26.3125 16.1697 26.3125H15.7347V23.31H17.3865C17.6292 23.31 17.826 23.1133 17.826 22.8706C17.826 22.6279 17.6292 22.4311 17.3865 22.4311ZM5.95078 27.4591C5.95078 27.5089 5.91029 27.5494 5.86049 27.5494H4.11146C4.06166 27.5494 4.02111 27.509 4.02111 27.4591V25.7101C4.02111 25.6603 4.0616 25.6197 4.11146 25.6197H5.86049C5.91029 25.6197 5.95078 25.6602 5.95078 25.7101V27.4591ZM16.1697 27.1914C16.2195 27.1914 16.26 27.2319 16.26 27.2817V29.0308C16.26 29.0806 16.2195 29.1211 16.1697 29.1211H14.4207C14.3709 29.1211 14.3303 29.0806 14.3303 29.0308V27.2817C14.3303 27.2319 14.3708 27.1914 14.4207 27.1914H16.1697Z" fill="black"/>
<path d="M17.441 8.12167H8.59253C8.34983 8.12167 8.15307 8.31842 8.15307 8.56112C8.15307 8.80381 8.34983 9.00057 8.59253 9.00057H17.441C17.6837 9.00057 17.8804 8.80381 17.8804 8.56112C17.8804 8.31842 17.6837 8.12167 17.441 8.12167Z" fill="black"/>
<path d="M19.3002 8.04661C19.0575 8.04661 18.8608 8.24337 18.8608 8.48606V8.53405C18.8608 8.7768 19.0575 8.9735 19.3002 8.9735C19.5429 8.9735 19.7397 8.77674 19.7397 8.53405V8.48606C19.7397 8.24337 19.5429 8.04661 19.3002 8.04661Z" fill="black"/>
<path d="M20.6489 8.04661C20.4062 8.04661 20.2095 8.24337 20.2095 8.48606V8.53405C20.2095 8.7768 20.4062 8.9735 20.6489 8.9735C20.8916 8.9735 21.0884 8.77674 21.0884 8.53405V8.48606C21.0884 8.24337 20.8916 8.04661 20.6489 8.04661Z" fill="black"/>
<path d="M21.9976 8.04661C21.7549 8.04661 21.5582 8.24337 21.5582 8.48606V8.53405C21.5582 8.7768 21.7549 8.9735 21.9976 8.9735C22.2403 8.9735 22.4371 8.77674 22.4371 8.53405V8.48606C22.4371 8.24337 22.2403 8.04661 21.9976 8.04661Z" fill="black"/>
<path d="M26.479 1.5716H24.73C24.1956 1.5716 23.7608 2.00636 23.7608 2.54085V2.97591H21.5703C21.045 2.97591 20.6176 3.40329 20.6176 3.92859V6.69005H15.7347V3.68747H16.1697C16.7042 3.68747 17.139 3.25271 17.139 2.71822V0.969197C17.1389 0.434765 16.7042 0 16.1697 0H14.4207C13.8863 0 13.4515 0.434765 13.4515 0.969256V2.71828C13.4515 3.25271 13.8862 3.68753 14.4207 3.68753H14.8558V6.6901H9.97288V3.92859C9.97288 3.40329 9.54549 2.97591 9.0202 2.97591H6.82968V2.54085C6.82968 2.00642 6.39492 1.5716 5.86048 1.5716H4.11146C3.57703 1.5716 3.14221 2.00636 3.14221 2.54085V4.28987C3.14221 4.82431 3.57697 5.25913 4.11146 5.25913H5.86048C6.39492 5.25913 6.82968 4.82437 6.82968 4.28987V3.85482H9.0202C9.06087 3.85482 9.09397 3.88792 9.09397 3.92859V6.69005H6.86671C6.22119 6.69005 5.69601 7.21522 5.69601 7.86069V18.5756C5.69601 18.8183 5.89277 19.015 6.13546 19.015C6.37816 19.015 6.57491 18.8183 6.57491 18.5756V10.3301H24.0152V12.0913C24.0152 12.334 24.212 12.5307 24.4547 12.5307C24.6974 12.5307 24.8941 12.334 24.8941 12.0913V7.86069C24.8941 7.21516 24.369 6.69005 23.7234 6.69005H21.4965V3.92859C21.4965 3.88792 21.5296 3.85482 21.5702 3.85482H23.7608V4.28987C23.7608 4.82431 24.1955 5.25913 24.73 5.25913H26.479C27.0134 5.25913 27.4482 4.82437 27.4482 4.28987V2.54085C27.4482 2.00642 27.0135 1.5716 26.479 1.5716ZM5.95078 4.28982C5.95078 4.33962 5.91029 4.38017 5.86048 4.38017H4.11146C4.06166 4.38017 4.02111 4.33968 4.02111 4.28982V2.5408C4.02111 2.49099 4.0616 2.45044 4.11146 2.45044H5.86048C5.91029 2.45044 5.95078 2.49093 5.95078 2.5408V4.28982ZM14.4208 2.80857C14.3709 2.80857 14.3304 2.76802 14.3304 2.71822V0.969197C14.3304 0.919393 14.3709 0.878846 14.4208 0.878846H16.1698C16.2196 0.878846 16.2601 0.919334 16.2601 0.969197V2.71822C16.2601 2.76802 16.2197 2.80857 16.1698 2.80857H14.4208ZM23.7234 7.56895C23.8843 7.56895 24.0152 7.69985 24.0152 7.86069V9.45121H6.57491V7.86069C6.57491 7.69979 6.70581 7.56895 6.86671 7.56895H23.7234ZM26.5693 4.28982C26.5693 4.33962 26.5288 4.38017 26.479 4.38017H24.73C24.6802 4.38017 24.6397 4.33968 24.6397 4.28982V2.5408C24.6397 2.49099 24.6802 2.45044 24.73 2.45044H26.479C26.5288 2.45044 26.5693 2.49093 26.5693 2.5408V4.28982Z" fill="black"/>
<path d="M26.4791 24.7409H24.73C24.1956 24.7409 23.7608 25.1756 23.7608 25.7101V26.1452H21.5703C21.5296 26.1452 21.4965 26.1121 21.4965 26.0714V23.3101H24.1205C24.5472 23.3101 24.8943 22.963 24.8943 22.5364V13.8853C24.8943 13.6426 24.6975 13.4458 24.4548 13.4458C24.2121 13.4458 24.0154 13.6426 24.0154 13.8853V22.4312H19.1806C18.9379 22.4312 18.7411 22.6279 18.7411 22.8706C18.7411 23.1133 18.9379 23.3101 19.1806 23.3101H20.6176V26.0714C20.6176 26.5967 21.045 27.0241 21.5703 27.0241H23.7608V27.4591C23.7608 27.9936 24.1956 28.4284 24.73 28.4284H26.4791C27.0135 28.4284 27.4483 27.9936 27.4483 27.4591V25.7101C27.4483 25.1757 27.0135 24.7409 26.4791 24.7409ZM26.5693 27.4591C26.5693 27.5089 26.5289 27.5494 26.479 27.5494H24.73C24.6802 27.5494 24.6397 27.5089 24.6397 27.4591V25.7101C24.6397 25.6603 24.6802 25.6197 24.73 25.6197H26.479C26.5288 25.6197 26.5693 25.6602 26.5693 25.7101V27.4591Z" fill="black"/>
<path d="M9.73996 16.2314L11.3832 14.5881C11.5548 14.4164 11.5548 14.1382 11.3832 13.9666C11.2116 13.7949 10.9333 13.7949 10.7618 13.9666L8.80774 15.9206C8.63612 16.0922 8.63612 16.3705 8.80774 16.542L10.7618 18.4961C10.8476 18.5819 10.9601 18.6248 11.0725 18.6248C11.1849 18.6248 11.2974 18.5819 11.3832 18.4961C11.5548 18.3245 11.5548 18.0462 11.3832 17.8746L9.73996 16.2314Z" fill="black"/>
<path d="M21.7827 15.9206L19.8287 13.9666C19.6571 13.7949 19.3788 13.7949 19.2072 13.9666C19.0356 14.1382 19.0356 14.4164 19.2072 14.588L20.8505 16.2313L19.2072 17.8745C19.0356 18.0462 19.0356 18.3245 19.2072 18.4961C19.293 18.5819 19.4055 18.6248 19.518 18.6248C19.6304 18.6248 19.7429 18.5819 19.8287 18.4961L21.7827 16.542C21.9543 16.3704 21.9543 16.0922 21.7827 15.9206Z" fill="black"/>
<path id="line" d="M14.8857 14.1492C14.6716 14.0349 14.4054 14.1157 14.291 14.3299L12.3424 17.9783C12.2281 18.1924 12.3089 18.4586 12.523 18.573C12.589 18.6082 12.6598 18.6249 12.7297 18.6249C12.8867 18.6249 13.0386 18.5406 13.1177 18.3924L15.0664 14.744C15.1807 14.5299 15.0998 14.2636 14.8857 14.1492Z" fill="black"/>
<path d="M15.171 17.6532C14.9283 17.6532 14.7316 17.85 14.7316 18.0927V18.137C14.7316 18.3797 14.9283 18.5765 15.171 18.5765C15.4137 18.5765 15.6105 18.3797 15.6105 18.137V18.0927C15.6105 17.85 15.4137 17.6532 15.171 17.6532Z" fill="black"/>
<path d="M16.6023 17.6532C16.3596 17.6532 16.1629 17.85 16.1629 18.0927V18.137C16.1629 18.3797 16.3596 18.5765 16.6023 18.5765C16.845 18.5765 17.0418 18.3797 17.0418 18.137V18.0927C17.0418 17.85 16.845 17.6532 16.6023 17.6532Z" fill="black"/>
<path d="M18.0336 17.6532C17.7909 17.6532 17.5942 17.85 17.5942 18.0927V18.137C17.5942 18.3797 17.7909 18.5765 18.0336 18.5765C18.2763 18.5765 18.4731 18.3797 18.4731 18.137V18.0927C18.4731 17.85 18.2763 17.6532 18.0336 17.6532Z" fill="black"/>
<animate href="#line"
		attributeName="fill"
		to="white"
		dur="1s"
		begin="2s"
		repeatCount="indefinite"
 />
</svg>
