<svg width="30" height="30" viewBox="0 0 30 30" fill="none" xmlns="http://www.w3.org/2000/svg">
<g clip-path="url(#clip0)">
<path d="M29.9046 16.9788C29.7534 16.7881 29.4765 16.7562 29.2858 16.9073L28.4221 17.5922L21.4411 8.42646L25.432 5.86504C25.6366 5.73368 25.6961 5.46133 25.5647 5.25667C25.4334 5.052 25.161 4.99259 24.9564 5.12395L20.564 7.94318C20.3509 8.07994 20.2978 8.37882 20.4515 8.5805L21.2509 9.63009L20.6824 10.0652L18.4257 9.3196C18.3816 9.30519 18.3341 9.29739 18.2875 9.29739H13.1212C12.9192 9.29739 12.7431 9.43491 12.6941 9.63091L12.4034 10.7938L11.6695 10.4848C11.5995 10.4553 11.5228 10.4445 11.4475 10.4533L9.40624 10.6923L8.71267 10.2897L9.37237 9.1471C9.49225 8.93933 9.41878 8.66546 9.21124 8.54564L0.660453 3.60872C0.449692 3.48708 0.180455 3.55927 0.0589903 3.76986C-0.0625913 3.98044 0.00953731 4.24974 0.220122 4.37132L6.92141 8.24031L1.13787 18.2577L0.660453 17.9821C0.449692 17.8604 0.180455 17.9327 0.0589903 18.1433C-0.0625913 18.3538 0.00953731 18.6231 0.220122 18.7447L2.54693 20.0882C2.75488 20.2082 3.02863 20.1346 3.14839 19.927L3.48507 19.3439L4.43493 19.8505C4.12509 20.4511 4.15562 21.2009 4.57813 21.7848C4.93936 22.284 5.50526 22.5494 6.07889 22.5494C6.27031 22.5494 6.46256 22.5194 6.64842 22.4591C6.64959 22.8522 6.77457 23.2302 7.01223 23.5458C7.3731 24.0252 7.9308 24.2792 8.49441 24.2792C8.68273 24.2792 8.87175 24.2508 9.05427 24.1929C9.05919 24.5604 9.17269 24.9299 9.40401 25.2496C9.69358 25.6498 10.1217 25.9133 10.6093 25.9915C10.7085 26.0074 10.8077 26.0153 10.9062 26.0153C11.0974 26.0153 11.2859 25.9855 11.4662 25.9276C11.4714 26.3046 11.5914 26.6703 11.817 26.9821C12.1066 27.3822 12.5347 27.6458 13.0223 27.724C13.1215 27.7399 13.2207 27.7478 13.3192 27.7477C13.7052 27.7477 14.0805 27.627 14.3993 27.3962L15.4265 26.6529C15.6488 26.4921 15.8281 26.289 15.9576 26.057L17.7648 27.042C18.0402 27.1921 18.3422 27.2684 18.6473 27.2684C18.8227 27.2684 18.9992 27.2432 19.1721 27.1923C19.646 27.0527 20.0372 26.7371 20.2735 26.3033C20.4578 25.9652 20.5304 25.5869 20.4875 25.2122C20.5981 25.2325 20.7093 25.2426 20.8201 25.2426C21.4757 25.2425 22.1118 24.8936 22.447 24.2786C22.6357 23.9325 22.7013 23.5521 22.6599 23.1873C22.7707 23.2078 22.8823 23.2179 22.9935 23.2179C23.6491 23.2178 24.2852 22.8689 24.6204 22.2539C24.8046 21.916 24.8772 21.538 24.8344 21.1635C24.9443 21.1839 25.0556 21.1943 25.1675 21.1943C25.343 21.1943 25.5195 21.1691 25.6924 21.1182C26.1662 20.9786 26.5574 20.663 26.7938 20.2292C27.0302 19.7955 27.0837 19.2957 26.9441 18.8218C26.9106 18.7079 26.8666 18.5989 26.8136 18.4956L27.5859 17.9474L27.9939 18.483C28.1411 18.6763 28.4271 18.7124 28.6178 18.5613L29.8332 17.5973C30.0237 17.4462 30.0557 17.1693 29.9046 16.9788ZM2.60599 19.1054L1.90053 18.6981L7.68406 8.68064L8.38952 9.08798L2.60599 19.1054ZM6.64414 21.4855C6.21154 21.7987 5.60469 21.7014 5.29157 21.2686C4.9785 20.8359 5.07583 20.2291 5.50854 19.9159L8.62331 17.6623C8.79634 17.5371 8.99538 17.4765 9.19237 17.4765C9.48235 17.4765 9.76794 17.6077 9.95942 17.857C10.2877 18.2845 10.1952 18.9159 9.75921 19.2317L6.64414 21.4855ZM9.05708 23.218C8.63251 23.5252 8.0307 23.4347 7.7157 23.0162C7.38933 22.5828 7.51502 21.9424 7.94703 21.6298L10.2752 19.9453C10.3599 19.8888 10.4382 19.8293 10.5332 19.7891C10.6682 19.7317 10.8161 19.7057 10.9627 19.7139C11.2431 19.7294 11.5056 19.8705 11.6765 20.0929C12.0047 20.5203 11.9123 21.1518 11.4763 21.4676L9.05708 23.218ZM11.47 24.9504C11.2604 25.1021 11.0043 25.1631 10.7488 25.122C10.4933 25.0811 10.2691 24.943 10.1174 24.7334C9.80444 24.3008 9.90153 23.6945 10.3337 23.3812C10.3337 23.3812 11.9926 22.1809 11.9928 22.1808L12.0575 22.1339C12.4852 21.8246 13.072 21.9101 13.3936 22.3287C13.7219 22.7563 13.6293 23.3879 13.1931 23.7035L11.47 24.9504ZM15.3009 25.2944C15.2629 25.5557 15.1241 25.7847 14.9102 25.9395L13.883 26.6828C13.455 26.9925 12.8396 26.8934 12.5303 26.4659C12.2197 26.0366 12.3209 25.4241 12.7472 25.1132L13.7093 24.4172L13.7746 24.3699C14.1961 24.065 14.794 24.1524 15.1106 24.5647C15.2715 24.7741 15.339 25.0332 15.3009 25.2944ZM26.0205 19.8077C25.7681 20.2709 25.1704 20.4476 24.7064 20.1946L19.6157 17.4199C19.4021 17.3036 19.1347 17.3822 19.0183 17.5958C18.902 17.8093 18.9807 18.0767 19.1942 18.1931L23.4601 20.5183C23.9292 20.7739 24.1027 21.3634 23.8471 21.8324C23.5915 22.3013 23.002 22.4751 22.5329 22.2194L18.2045 19.8601C17.991 19.7437 17.7236 19.8225 17.6072 20.036C17.4909 20.2495 17.5695 20.5169 17.7831 20.6334L21.2874 22.5435C21.7559 22.7993 21.9291 23.3884 21.6737 23.8572C21.4213 24.3204 20.8237 24.4971 20.3595 24.2441L16.6908 22.2444C16.4771 22.1281 16.2098 22.2068 16.0934 22.4203C15.977 22.6338 16.0557 22.9012 16.2692 23.0177L19.1133 24.5678C19.5765 24.8203 19.7532 25.4179 19.5002 25.882C19.2478 26.3453 18.6501 26.5218 18.1861 26.2689L16.1913 25.1816C16.1983 24.7661 16.0666 24.3638 15.809 24.0284C15.4631 23.5779 14.9563 23.3295 14.4337 23.3041C14.4419 23.265 14.4495 23.2256 14.4553 23.1857C14.528 22.687 14.399 22.1922 14.092 21.7925C13.746 21.3421 13.2393 21.0937 12.7166 21.0683C12.7249 21.0292 12.7324 20.9898 12.7382 20.9498C12.8109 20.4511 12.6819 19.9564 12.3749 19.5567C12.0289 19.1062 11.5222 18.8578 10.9995 18.8324C11.0078 18.7934 11.0153 18.7539 11.0211 18.714C11.0938 18.2153 10.9648 17.7205 10.6579 17.3208C10.044 16.5215 8.92343 16.3583 8.1071 16.9491L5.03428 19.1721L3.92558 18.5808L8.27228 11.0522L9.09071 11.5273C9.17304 11.5752 9.26872 11.5948 9.363 11.5839L11.4346 11.3413L12.1871 11.6581L11.7547 13.3882C11.746 13.4231 11.7415 13.4589 11.7415 13.495V17.2523C11.7415 18.531 12.7819 19.5712 14.0605 19.5712C15.3392 19.5712 16.3795 18.5309 16.3795 17.2523V13.6212L16.4595 13.4932L25.6335 18.4935C26.0967 18.746 26.2735 19.3435 26.0205 19.8077ZM26.2306 17.8293C26.1744 17.7902 26.1161 17.7535 26.0551 17.7203L16.9272 12.745L17.2659 12.2032C17.3947 11.9969 17.332 11.7253 17.1258 11.5964C16.9197 11.4676 16.6479 11.5302 16.519 11.7365L15.5658 13.2616C15.5222 13.3316 15.4989 13.4124 15.4989 13.495V17.2523C15.4989 18.0453 14.8537 18.6906 14.0606 18.6906C13.2674 18.6906 12.6222 18.0454 12.6222 17.2523V13.5492L13.465 10.178H18.2167L20.6271 10.9743C20.7641 11.0196 20.9183 10.9936 21.0328 10.9059L21.7844 10.3306L27.0518 17.2465L26.2306 17.8293Z" fill="white"/>
<path d="M29.9302 2.45484C29.7989 2.25017 29.5265 2.19076 29.3219 2.32212L26.8549 3.90543C26.6503 4.0368 26.5909 4.30914 26.7222 4.51381C26.8063 4.64488 26.9482 4.71637 27.0931 4.71637C27.1746 4.71637 27.2569 4.69381 27.3306 4.64658L29.7975 3.06327C30.0021 2.93179 30.0615 2.65945 29.9302 2.45484Z" fill="white"/>
</g>
<defs>
<clipPath id="clip0">
<rect width="30" height="30" fill="white"/>
</clipPath>
</defs>
</svg>
