<svg width="30" height="30" viewBox="0 0 30 30" fill="none" xmlns="http://www.w3.org/2000/svg">
<g clip-path="url(#clip0)">
<path d="M18.8295 3.73805C15.5296 2.07058 11.5545 2.70814 8.93826 5.32448C5.89752 8.36515 5.59319 13.2136 8.23038 16.6023C8.32361 16.722 8.46294 16.7847 8.6038 16.7847C8.70529 16.7847 8.80753 16.7522 8.89384 16.685C9.09992 16.5246 9.13695 16.2276 8.97663 16.0215C6.63176 13.0085 6.90276 8.6972 9.60693 5.99303C11.9337 3.66615 15.4685 3.09908 18.4032 4.58192C18.6361 4.69981 18.9206 4.60617 19.0383 4.37315C19.156 4.14012 19.0626 3.85576 18.8295 3.73805Z" fill="black"/>
<path d="M22.6048 7.51403C22.487 7.281 22.2028 7.18748 21.9695 7.30514C21.7365 7.42285 21.6429 7.70715 21.7607 7.9403C23.2424 10.8744 22.6751 14.4088 20.3488 16.735C17.6446 19.4391 13.3333 19.71 10.3203 17.3653C10.1142 17.205 9.81723 17.242 9.65685 17.448C9.49648 17.6541 9.53357 17.9511 9.73965 18.1115C11.2832 19.3128 13.1296 19.9036 14.9701 19.9036C17.1701 19.9036 19.3618 19.0592 21.0175 17.4036C23.6332 14.7879 24.2711 10.8136 22.6048 7.51403Z" fill="black"/>
<path d="M21.3832 5.71337C21.2661 5.58083 21.1431 5.44993 21.0175 5.32442C20.8919 5.19886 20.7611 5.07581 20.6286 4.95868C20.4329 4.78571 20.1341 4.80423 19.9613 4.99987C19.7883 5.19546 19.8067 5.49423 20.0023 5.66714C20.1204 5.77144 20.237 5.88112 20.3489 5.99298C20.4607 6.10489 20.5704 6.22144 20.6747 6.3395C20.7681 6.44521 20.8983 6.49917 21.0292 6.49917C21.1404 6.49917 21.2521 6.46009 21.3421 6.38064C21.5378 6.20779 21.5562 5.90902 21.3832 5.71337Z" fill="black"/>
<path d="M26.1367 12.2114C26.452 11.6942 26.452 11.0518 26.1366 10.5347L25.5146 9.51476C25.4327 9.38035 25.401 9.22074 25.4255 9.06535L25.6109 7.88744C25.7054 7.28714 25.4588 6.69224 24.9674 6.33476L24.0035 5.63362C23.8761 5.54087 23.7855 5.40558 23.7484 5.25241L23.4677 4.09231C23.3252 3.50303 22.8705 3.04846 22.2813 2.90584L21.1212 2.62506C20.968 2.58797 20.8326 2.49739 20.7399 2.36994L20.0387 1.40578C19.6813 0.914414 19.0863 0.667676 18.4862 0.762246L17.3079 0.947637C17.1525 0.972071 16.9928 0.94043 16.8585 0.858516L15.8384 0.236366C15.3212 -0.0789859 14.6788 -0.0789273 14.1617 0.236366L13.1417 0.85834C13.0074 0.940313 12.8478 0.971837 12.6922 0.947461L11.5143 0.76207C10.9142 0.667617 10.3191 0.914239 9.96171 1.40561L9.26058 2.36953C9.16782 2.49698 9.03247 2.58756 8.87925 2.62465L7.71915 2.90538C7.12999 3.04788 6.6753 3.50251 6.53268 4.09172L6.2519 5.25188C6.21481 5.40505 6.12428 5.54046 5.99678 5.6331L5.03262 6.33435C4.54125 6.69171 4.29469 7.28656 4.38908 7.88685L4.57447 9.06523C4.59891 9.22068 4.56727 9.38029 4.48535 9.51459L3.86326 10.5348C3.54803 11.0519 3.54803 11.6943 3.86332 12.2114L4.4853 13.2314C4.56721 13.3658 4.59891 13.5255 4.57442 13.6808L4.38903 14.8588C4.29451 15.4591 4.54114 16.054 5.0325 16.4114L5.99643 17.1126C6.12387 17.2052 6.21446 17.3406 6.25155 17.4938L6.53227 18.6539C6.67477 19.2432 7.1294 19.6977 7.71862 19.8403L8.20308 19.9576L4.92451 27.2709C4.85485 27.4264 4.87412 27.6072 4.97508 27.7444C5.07598 27.8817 5.2428 27.954 5.41202 27.9337L8.05003 27.6183L9.56972 29.7975C9.65866 29.9249 9.8038 29.9998 9.95738 29.9998C9.97208 29.9998 9.98697 29.9991 10.0017 29.9978C10.1713 29.9818 10.3193 29.8758 10.3889 29.7205L13.7373 22.251L14.1615 22.5097C14.4201 22.6674 14.71 22.7462 14.9999 22.7462C15.2898 22.7462 15.5797 22.6673 15.8383 22.5097L16.2778 22.2417L19.6304 29.7205C19.7001 29.876 19.848 29.9818 20.0176 29.9978C20.0324 29.9992 20.0472 29.9999 20.0619 29.9999C20.2155 29.9999 20.3607 29.925 20.4496 29.7976L21.9693 27.6184L24.6073 27.9338C24.7764 27.9539 24.9433 27.8817 25.0442 27.7445C25.1451 27.6073 25.1645 27.4264 25.0948 27.271L21.8145 19.9536L22.2808 19.8408C22.8699 19.6983 23.3246 19.2437 23.4672 18.6545L23.748 17.4943C23.7851 17.3411 23.8757 17.2057 24.0031 17.1131L24.9673 16.4118C25.4587 16.0545 25.7052 15.4596 25.6108 14.8593L25.4255 13.681C25.401 13.5255 25.4327 13.3659 25.5146 13.2316L26.1367 12.2114ZM9.86767 28.5718L8.66333 26.8448C8.56349 26.7016 8.39274 26.625 8.21942 26.6458L6.12885 26.8958L9.11591 20.2323C9.17052 20.2725 9.2195 20.3206 9.25988 20.3762L9.96113 21.3404C10.0277 21.4319 10.1026 21.515 10.1843 21.5889L8.612 25.0962C8.50524 25.3345 8.61177 25.6141 8.85001 25.7209C8.91282 25.7491 8.97851 25.7624 9.04308 25.7624C9.22366 25.7624 9.39616 25.6584 9.47474 25.4829L11.0414 21.9882C11.1956 22.0093 11.3543 22.009 11.5136 21.9839L12.692 21.7985C12.7625 21.7874 12.8338 21.7884 12.9032 21.7999L9.86767 28.5718ZM23.8906 26.8957L21.8 26.6458C21.6265 26.625 21.4559 26.7016 21.3561 26.8448L20.1517 28.5718L17.1149 21.7973C17.1785 21.7886 17.2435 21.7886 17.3078 21.7987L18.4857 21.9841C18.6515 22.0101 18.8167 22.0093 18.9767 21.9855L20.5445 25.4831C20.6232 25.6585 20.7956 25.7625 20.9762 25.7625C21.0408 25.7625 21.1065 25.7492 21.1693 25.7211C21.4075 25.6143 21.5141 25.3345 21.4073 25.0963L19.829 21.5757C19.9052 21.505 19.9755 21.4268 20.0383 21.3405L20.7394 20.3766C20.7836 20.3158 20.8377 20.2637 20.8986 20.2216L23.8906 26.8957ZM25.3294 11.7191L24.7073 12.7393C24.5089 13.0647 24.4322 13.4513 24.4914 13.8279L24.6768 15.0062C24.7158 15.254 24.6139 15.4995 24.4111 15.6471L23.4469 16.3484C23.1383 16.5729 22.9188 16.9009 22.829 17.2718L22.5483 18.432C22.4894 18.6752 22.3018 18.8629 22.0585 18.9218L20.8983 19.2025C20.5273 19.2923 20.1993 19.5118 19.9748 19.8204L19.2736 20.7844C19.1261 20.9873 18.8806 21.089 18.6327 21.05L17.4547 20.8646C17.0781 20.8053 16.6915 20.882 16.366 21.0804L15.346 21.7024C15.1326 21.8325 14.8673 21.8325 14.6539 21.7024L13.6337 21.0804C13.38 20.9256 13.0892 20.845 12.7948 20.845C12.7116 20.845 12.628 20.8514 12.5451 20.8645L11.3667 21.0499C11.1189 21.0889 10.8734 20.987 10.7258 20.7842L10.0245 19.8201C9.79999 19.5115 9.47204 19.292 9.10109 19.2022L7.94093 18.9214C7.6977 18.8625 7.51003 18.6749 7.45114 18.4316L7.17042 17.2715C7.08065 16.9005 6.86122 16.5725 6.55249 16.3479L5.58862 15.6467C5.38577 15.4992 5.28399 15.2536 5.32301 15.0058L5.5084 13.8278C5.56764 13.4512 5.491 13.0646 5.29254 12.7391L4.67057 11.7191C4.54043 11.5056 4.54043 11.2404 4.67057 11.027L5.29266 10.0068C5.49106 9.68134 5.56776 9.29474 5.50852 8.91822L5.32313 7.7399C5.28416 7.4921 5.386 7.24654 5.58879 7.099L6.55301 6.39769C6.86163 6.17315 7.08112 5.8452 7.17089 5.47425L7.45167 4.31409C7.51056 4.07087 7.69817 3.88319 7.94145 3.8243L9.10161 3.54358C9.47263 3.45381 9.80064 3.23432 10.0251 2.92565L10.7262 1.96172C10.8738 1.75887 11.1193 1.65697 11.3672 1.69606L12.5452 1.88145C12.9218 1.9408 13.3085 1.86405 13.6339 1.66559L14.6539 1.04361C14.8673 0.913536 15.1326 0.913536 15.346 1.04361L16.3661 1.66565C16.6916 1.86416 17.0783 1.94086 17.4548 1.88156L18.6331 1.69617C18.8809 1.65733 19.1265 1.75905 19.274 1.96184L19.9753 2.926C20.1999 3.23461 20.5278 3.45411 20.8988 3.54387L22.0589 3.82465C22.3022 3.88354 22.4898 4.07116 22.5487 4.31444L22.8295 5.47454C22.9192 5.84556 23.1387 6.17362 23.4474 6.39816L24.4113 7.09929C24.6142 7.24683 24.7159 7.49245 24.6769 7.74025L24.4915 8.91822C24.4323 9.2948 24.5089 9.6814 24.7074 10.0069L25.3294 11.027C25.4596 11.2404 25.4596 11.5057 25.3294 11.7191Z" fill="black"/>
<path d="M20.5322 9.90218C20.428 9.58143 20.1553 9.35749 19.8204 9.31776L16.9756 8.98044L15.7757 6.37916C15.6344 6.07295 15.3372 5.8827 14.9999 5.8827C14.6627 5.8827 14.3654 6.07295 14.2241 6.37916L13.0242 8.9805L10.1795 9.31782C9.84453 9.35755 9.57172 9.58149 9.4676 9.90224C9.36342 10.2228 9.45248 10.5643 9.69998 10.7933L11.8032 12.7383L11.2449 15.5481C11.1792 15.8789 11.3079 16.2075 11.5808 16.4057C11.7313 16.515 11.906 16.5704 12.0818 16.5704C12.2247 16.5704 12.3682 16.5338 12.5001 16.46L14.9999 15.0608L17.4996 16.46C17.7939 16.6248 18.1461 16.604 18.419 16.4057C18.6919 16.2075 18.8205 15.8789 18.7548 15.5481L18.1965 12.7384L20.2997 10.7933C20.5473 10.5644 20.6364 10.2229 20.5322 9.90218ZM17.3603 12.2238C17.2396 12.3355 17.1856 12.5018 17.2176 12.6631L17.7889 15.5383L15.2308 14.1065C15.1591 14.0663 15.0795 14.0462 14.9999 14.0462C14.9202 14.0462 14.8407 14.0663 14.7689 14.1065L12.2108 15.5383L12.7821 12.6631C12.8142 12.5018 12.7602 12.3355 12.6394 12.2238L10.4871 10.2334L13.3984 9.88823C13.5617 9.8689 13.7032 9.76606 13.7721 9.61683L14.9999 6.95485L16.2277 9.61683C16.2967 9.76606 16.4381 9.8689 16.6014 9.88823L19.5126 10.2334L17.3603 12.2238Z" fill="black"/>
</g>
<defs>
<clipPath id="clip0">
<rect width="30" height="30" fill="white"/>
</clipPath>
</defs>
</svg>
