<svg width="150" height="150" viewBox="0 0 150 150" fill="none" xmlns="http://www.w3.org/2000/svg">
<path d="M134.341 118.61C142.188 107.104 146.777 93.1995 146.777 78.2227C146.777 38.5815 114.641 6.44531 75 6.44531C35.3588 6.44531 3.22266 38.5815 3.22266 78.2227C3.22266 84.6783 4.07982 90.9336 5.67856 96.8845L134.341 118.61Z" fill="#00C82F"/>
<path d="M134.523 102.269H7.35512C17.2428 130.083 43.7931 150 75 150C99.7787 150 121.624 137.445 134.523 118.348V102.269Z" fill="#E6F7FE"/>
<path d="M25.177 102.269H7.35512C11.1111 112.833 17.2714 122.256 25.177 129.882V102.269Z" fill="#D5F1FE"/>
<path d="M5.59502 23.5942H85.1635V49.9179H5.59502V23.5942Z" fill="#FCE395"/>
<path d="M5.59502 49.9179H32.3868C32.5298 49.1375 32.7381 48.4622 32.935 47.9381C33.1936 47.2492 32.9544 46.4653 32.3364 46.0647C26.5388 42.3111 27.8114 37.6991 29.0188 35.3611C29.4308 34.5634 29.1023 33.5987 28.2909 33.213C22.3503 30.3863 25.177 24.1802 25.177 24.1802L23.9857 23.5942H5.59502V49.9179Z" fill="#FECD0A"/>
<path d="M5.59502 16.4852H85.1646V24.1802H5.59502V16.4852Z" fill="#D5F1FE"/>
<path d="M39.8598 24.1802H5.59502V16.4852H32.6111C36.6142 16.4852 39.8598 19.931 39.8598 24.1802Z" fill="#11DFEF"/>
<path d="M5.59502 16.4852H25.177V24.1802H5.59502V16.4852Z" fill="#0AC6E5"/>
<path d="M43.3205 120.491H24.6471C23.0289 120.491 21.7175 119.18 21.7175 117.562C21.7175 115.944 23.0289 114.632 24.6471 114.632H43.3205C44.9387 114.632 46.2502 115.944 46.2502 117.562C46.2502 119.179 44.9387 120.491 43.3205 120.491Z" fill="#11DFEF"/>
<path d="M63.6429 125.259H22.998C22.3663 125.259 21.7987 125.527 21.3982 125.954C22.5346 127.229 23.7156 128.462 24.939 129.654H63.6429C64.8571 129.654 65.8401 128.671 65.8401 127.456C65.8401 126.243 64.856 125.259 63.6429 125.259V125.259Z" fill="#D5F1FE"/>
<path d="M63.6429 134.508H30.4585C32.4406 136.078 34.5074 137.545 36.6497 138.903H63.6429C64.856 138.903 65.8401 137.92 65.8401 136.705C65.8401 135.492 64.856 134.508 63.6429 134.508Z" fill="#D5F1FE"/>
<path d="M96.7976 120.491H78.1254C76.5072 120.491 75.1957 119.18 75.1957 117.562C75.1957 115.944 76.5072 114.632 78.1254 114.632H96.7976C98.4158 114.632 99.7272 115.944 99.7272 117.562C99.7272 119.179 98.4158 120.491 96.7976 120.491Z" fill="#11DFEF"/>
<path d="M117.12 129.654H76.4751C75.2621 129.654 74.2779 128.671 74.2779 127.456C74.2779 126.242 75.2621 125.259 76.4751 125.259H117.12C118.333 125.259 119.317 126.242 119.317 127.456C119.317 128.671 118.334 129.654 117.12 129.654Z" fill="#D5F1FE"/>
<path d="M117.12 134.508H76.4751C75.2621 134.508 74.2779 135.491 74.2779 136.705C74.2779 137.92 75.2621 138.903 76.4751 138.903H113.349C115.188 137.738 116.97 136.491 118.69 135.17C118.292 134.762 117.736 134.508 117.12 134.508V134.508Z" fill="#D5F1FE"/>
<path d="M85.0216 74.0524V45.2568C81.4281 47.5101 76.712 49.5392 71.212 49.6959C69.54 52.5009 66.4776 54.3846 62.9826 54.3846C57.2147 54.3846 52.6932 49.2759 53.5034 43.4807C50.3849 41.1564 42.4587 33.7269 29.9812 33.847C16.9727 33.9741 9.65881 42.1486 5.59502 45.6608V74.0524H85.0216Z" fill="#FECD0A"/>
<path d="M38.7394 61.5074C30.6725 56.8795 31.9542 50.5474 32.935 47.9382C33.1947 47.2493 32.9544 46.4653 32.3364 46.0648C26.5388 42.3111 27.8114 37.6992 29.0188 35.3611C29.2717 34.8713 29.2442 34.3197 28.9993 33.8768C16.6042 34.3918 9.55467 42.239 5.59502 45.662V74.0525H40.1905C43.5757 70.5529 45.3094 65.276 38.7394 61.5074Z" fill="#FCA60D"/>
<path d="M5.59502 96.5779C6.12259 98.5806 6.73485 100.548 7.42836 102.477H85.1646C85.0719 102.012 85.0216 101.531 85.0216 101.039V70.348L78.3932 63.7196C75.7118 61.0394 71.3654 61.0394 68.684 63.7196L63.9221 68.4827C62.7502 69.6545 60.8505 69.6545 59.6786 68.4827L40.0589 48.8629C37.0972 45.9012 32.2952 45.9012 29.3335 48.8629L5.59502 72.6014V96.5779Z" fill="#FCA60D"/>
<path d="M35.5167 91.3502C22.8458 84.7584 33.9054 77.71 33.9054 77.71C38.7325 77.2202 49.1398 67.4733 38.7394 61.5075C30.6725 56.8795 31.9542 50.5475 32.935 47.9382C33.0711 47.5766 33.0666 47.1909 32.9453 46.8464C31.6223 47.1589 30.3658 47.8306 29.3346 48.8617L5.59502 72.6014V96.5779C6.12373 98.5795 6.73599 100.547 7.42836 102.476H33.3641C38.3846 99.6071 43.0538 95.271 35.5167 91.3502V91.3502Z" fill="#F98A10"/>
<path d="M5.59502 96.5778C6.12259 98.5806 6.73485 100.548 7.42836 102.477H85.1646C85.0719 102.011 85.0216 101.531 85.0216 101.039V84.4711C78.0773 91.2014 67.0841 96.4771 53.001 85.6293C30.788 68.5204 19.36 83.3279 5.59502 90.9657V96.5778Z" fill="#8181FC"/>
<path d="M35.5167 91.3501C23.0118 84.8441 33.6193 77.8953 33.8985 77.7145C22.9111 77.5977 14.772 85.873 5.59502 90.9656V96.5778C6.12373 98.5793 6.73599 100.547 7.42836 102.476H33.3641C38.3846 99.607 43.0538 95.2709 35.5167 91.3501V91.3501Z" fill="#615DF9"/>
<path d="M72.9652 44.8104C72.9652 50.3231 68.4952 54.792 62.9826 54.792C57.4699 54.792 53.001 50.3231 53.001 44.8104C53.001 39.2967 57.4699 34.8278 62.9826 34.8278C68.4952 34.8278 72.9652 39.2967 72.9652 44.8104Z" fill="#FCA60D"/>
<path d="M70.9385 50.4055C62.8521 50.4055 58.2596 41.3475 62.6667 34.8358C57.3006 35.004 53.001 39.4032 53.001 44.8105C53.001 54.6249 65.752 58.5308 71.2555 50.3975C71.1502 50.4009 71.0449 50.4055 70.9385 50.4055Z" fill="#F98A10"/>
<path d="M85.1681 7.78653C85.1681 5.8479 85.8833 4.07292 87.0598 2.70764C51.3805 2.70764 8.12302 2.70764 5.98869 2.70764C5.77126 2.70764 5.59502 2.88388 5.59502 3.10132V16.9315H85.1681V7.78653Z" fill="#615DF9"/>
<path d="M25.177 6.22327C25.177 4.29036 26.7586 2.70764 28.6926 2.70764C15.9004 2.70764 6.93169 2.70764 5.98869 2.70764C5.77126 2.70764 5.59502 2.88388 5.59502 3.10132V16.9315H25.1759V6.22327H25.177Z" fill="#3342AE"/>
<path d="M16.2415 12.6125C14.6278 12.6125 13.3118 11.2976 13.3118 9.6828C13.3118 8.28548 14.2937 7.08842 15.6693 6.80804C17.4614 6.44755 19.1711 7.82542 19.1711 9.6828C19.1711 11.3113 17.8391 12.6125 16.2415 12.6125Z" fill="#F948B4"/>
<path d="M25.177 12.6125C23.5851 12.6125 22.2473 11.317 22.2473 9.68283C22.2473 7.83003 23.9513 6.44644 25.7481 6.80807C27.1671 7.09647 28.1067 8.33586 28.1067 9.68283C28.1067 11.2964 26.7906 12.6125 25.177 12.6125Z" fill="#FECD0A"/>
<path d="M34.1125 12.6125C32.5207 12.6125 31.1829 11.3171 31.1829 9.68286C31.1829 7.82205 32.8949 6.44876 34.6836 6.8081C36.1027 7.09649 37.0422 8.33818 37.0422 9.68286C37.0422 11.2965 35.7262 12.6125 34.1125 12.6125Z" fill="#39DF74"/>
<path d="M85.1681 7.78662C85.1681 7.73169 85.1715 7.67676 85.1727 7.62183H45.7272C44.5129 7.62183 43.5299 8.60602 43.5299 9.81909C43.5299 11.0333 44.5129 12.0164 45.7272 12.0164H85.1681V7.78662Z" fill="#8181FC"/>
<path d="M136.617 0H92.3687C88.076 0 84.5821 3.49388 84.5821 7.78656V101.038C84.5821 105.331 88.076 108.824 92.3687 108.824H136.618C140.912 108.824 144.405 105.331 144.405 101.038V7.78656C144.405 3.49388 140.911 0 136.617 0Z" fill="#3D4EC6"/>
<path d="M99.3599 106.551C99.3599 105.052 100.499 103.82 101.959 103.673L99.5899 5.18188C98.4867 4.77448 97.6994 3.7159 97.6994 2.47078C97.6994 1.4225 98.259 0.508118 99.0932 0H92.3687C88.076 0 84.5833 3.49388 84.5833 7.78656V101.039C84.5833 105.331 88.076 108.825 92.3687 108.825H100.468C99.7936 108.295 99.3599 107.475 99.3599 106.551V106.551Z" fill="#3342AE"/>
<path d="M89.09 58.3889V101.039C89.09 102.849 90.5582 104.316 92.3687 104.316H136.618C138.429 104.316 139.897 102.849 139.897 101.039C139.897 99.4835 139.897 79.4815 139.897 58.3889H89.09Z" fill="#E6F7FE"/>
<path d="M99.67 101.039V58.3889H89.09V101.039C89.09 102.849 90.5582 104.316 92.3687 104.316H100.397C99.9321 103.32 99.67 102.209 99.67 101.039Z" fill="#D5F1FE"/>
<path d="M114.557 70.4556H101.293C99.6746 70.4556 98.3631 69.1441 98.3631 67.5259C98.3631 65.9088 99.6746 64.5962 101.293 64.5962H114.557C116.174 64.5962 117.486 65.9088 117.486 67.5259C117.486 69.1441 116.174 70.4556 114.557 70.4556Z" fill="#11DFEF"/>
<path d="M128.992 78.447H100.121C98.9079 78.447 97.9237 77.4628 97.9237 76.2498C97.9237 75.0355 98.9079 74.0525 100.121 74.0525H128.992C130.205 74.0525 131.189 75.0355 131.189 76.2498C131.189 77.4628 130.205 78.447 128.992 78.447Z" fill="#D5F1FE"/>
<path d="M114.557 88.7455H101.293C99.6746 88.7455 98.3631 87.434 98.3631 85.8158C98.3631 84.1987 99.6746 82.8861 101.293 82.8861H114.557C116.174 82.8861 117.486 84.1987 117.486 85.8158C117.486 87.434 116.174 88.7455 114.557 88.7455Z" fill="#11DFEF"/>
<path d="M107.925 67.5259C107.925 65.9088 109.236 64.5962 110.854 64.5962H101.293C99.6746 64.5962 98.3631 65.9088 98.3631 67.5259C98.3631 69.1441 99.6746 70.4556 101.293 70.4556H110.854C109.236 70.4556 107.925 69.1441 107.925 67.5259V67.5259Z" fill="#0AC6E5"/>
<path d="M107.925 85.8158C107.925 84.1987 109.236 82.8861 110.854 82.8861H101.293C99.6746 82.8861 98.3631 84.1987 98.3631 85.8158C98.3631 87.434 99.6746 88.7455 101.293 88.7455H110.854C109.236 88.7455 107.925 87.434 107.925 85.8158V85.8158Z" fill="#0AC6E5"/>
<path d="M128.992 96.7369H100.121C98.9079 96.7369 97.9237 95.7539 97.9237 94.5397C97.9237 93.3255 98.9079 92.3424 100.121 92.3424H128.992C130.205 92.3424 131.189 93.3255 131.189 94.5397C131.189 95.7527 130.205 96.7369 128.992 96.7369Z" fill="#D5F1FE"/>
<path d="M136.617 4.50781H130.042C129.421 4.50781 128.919 5.01021 128.919 5.63048C128.919 7.11821 127.702 8.33472 126.215 8.33472H102.774C101.286 8.33472 100.068 7.11821 100.068 5.63048C100.068 5.01021 99.5659 4.50781 98.9456 4.50781H92.3698C90.5582 4.50781 89.0911 5.97609 89.0911 7.78654V17.4877C90.9073 16.3147 101.769 10.0696 113.754 19.9058C114.096 20.1874 114.437 20.4494 114.776 20.7023C114.737 20.9839 114.716 21.2711 114.716 21.5641C114.716 24.987 117.5 27.7714 120.922 27.7714C123.188 27.7714 125.173 26.5491 126.257 24.7318C133.654 24.5212 138.887 19.0933 139.897 17.9649V7.78654C139.897 5.97609 138.429 4.50781 136.617 4.50781Z" fill="#FCE395"/>
<path d="M100.068 5.63048C100.068 5.01021 99.5659 4.50781 98.9456 4.50781H92.3687C90.5582 4.50781 89.09 5.97609 89.09 7.78654V17.4877C90.2813 16.7187 95.359 13.7707 102.093 14.6015C102.284 14.114 102.232 13.5555 101.927 13.1023C99.9825 10.2138 102.773 8.33472 102.773 8.33472C101.286 8.33472 100.068 7.11821 100.068 5.63048V5.63048Z" fill="#FECD0A"/>
<path d="M126.257 24.1447C125.173 25.9632 123.188 27.1843 120.922 27.1843C117.499 27.1843 114.714 24.3999 114.714 20.9781C114.714 20.6852 114.737 20.3979 114.776 20.1152C114.436 19.8635 114.096 19.6003 113.754 19.3199C101.769 9.48369 90.9073 15.7287 89.09 16.9017V34.2064L99.1058 24.1905C101.027 22.2702 104.14 22.2702 106.06 24.1905L118.781 36.9106C119.539 37.6693 120.771 37.6693 121.531 36.9106L124.618 33.823C126.357 32.0846 129.174 32.0846 130.912 33.823L139.896 42.8066V17.3778C138.887 18.5074 133.654 23.9341 126.257 24.1447Z" fill="#FECD0A"/>
<path d="M101.921 21.2025C99.8085 18.4365 100.884 16.2129 101.841 15.0341C102.08 14.7412 102.199 14.3864 102.203 14.0305C95.4151 13.1539 90.2882 16.1293 89.09 16.9018V34.2064L99.1058 24.1906C99.9561 23.3414 101.04 22.8688 102.151 22.7715C102.355 22.2554 102.27 21.6591 101.921 21.2025V21.2025Z" fill="#FCA60D"/>
<path d="M127.393 20.9782C127.393 24.5522 124.496 27.4499 120.922 27.4499C117.348 27.4499 114.45 24.5522 114.45 20.9782C114.45 17.4042 117.348 14.5066 120.922 14.5066C124.496 14.5066 127.393 17.4042 127.393 20.9782V20.9782Z" fill="#FCA60D"/>
<path d="M120.2 14.5477C116.965 14.9059 114.45 17.6479 114.45 20.9782C114.45 27.1603 122.383 29.8393 126.112 24.8451C120.409 25.478 116.875 19.0029 120.2 14.5477Z" fill="#F98A10"/>
<path d="M130.912 33.237C129.174 31.4987 126.357 31.4987 124.618 33.237L121.531 36.3247C120.772 37.0845 119.54 37.0845 118.781 36.3247L106.06 23.6045C104.14 21.6842 101.027 21.6842 99.107 23.6045L89.0911 33.6216V46.2078C90.9073 45.0348 101.769 38.7897 113.754 48.6248C127.335 59.7702 138.375 48.3844 139.897 46.6838V42.2218L130.912 33.237Z" fill="#FCA60D"/>
<path d="M104.438 31.3648C99.876 27.642 100.993 24.5372 101.995 23.0735C102.18 22.8035 102.264 22.491 102.26 22.1809C101.112 22.2553 99.9836 22.7268 99.1058 23.6046L89.09 33.6216V46.2078C90.2069 45.4857 94.7456 42.8478 100.862 43.2094C101.19 42.8627 101.432 42.6658 101.432 42.6658C101.432 42.6658 110.81 36.565 104.438 31.3648V31.3648Z" fill="#F98A10"/>
<path d="M113.754 48.0389C101.769 38.2039 90.9073 44.4478 89.09 45.6219V58.6831H139.897V46.098C138.374 47.7986 127.335 59.1843 113.754 48.0389Z" fill="#8181FC"/>
<path d="M102.46 51.5064C95.6486 47.3316 101.434 42.6658 101.434 42.6658C95.0295 42.0971 90.2424 44.878 89.0911 45.6219V58.6819H102.496C104.662 56.7444 106.412 53.928 102.46 51.5064V51.5064Z" fill="#615DF9"/>
<g clip-path="url(#clip0)">
<path d="M25.3466 124.955C20.1874 123.614 18.5284 122.239 18.5284 120.08C18.5284 117.602 20.8125 115.864 24.6647 115.864C28.7102 115.864 30.2102 117.795 30.3465 120.636H35.3693C35.2215 116.716 32.8239 113.148 28.0738 111.977V107H21.2556V111.909C16.8465 112.875 13.3011 115.716 13.3011 120.114C13.3011 125.364 17.6533 127.977 23.9829 129.5C29.6761 130.864 30.8011 132.852 30.8011 134.989C30.8011 136.545 29.6988 139.045 24.6647 139.045C19.9829 139.045 18.1307 136.943 17.892 134.273H12.8807C13.1648 139.25 16.8807 142.034 21.2556 142.977V147.909H28.0738V143.023C32.4942 142.17 36.0284 139.614 36.0284 134.943C36.0284 128.511 30.5057 126.307 25.3466 124.955Z" fill="#005403"/>
</g>
<g clip-path="url(#clip1)">
<path d="M56.3466 124.955C51.1874 123.614 49.5284 122.239 49.5284 120.08C49.5284 117.602 51.8125 115.864 55.6647 115.864C59.7102 115.864 61.2102 117.795 61.3465 120.636H66.3693C66.2215 116.716 63.8239 113.148 59.0738 111.977V107H52.2556V111.909C47.8465 112.875 44.3011 115.716 44.3011 120.114C44.3011 125.364 48.6533 127.977 54.9829 129.5C60.6761 130.864 61.8011 132.852 61.8011 134.989C61.8011 136.545 60.6988 139.045 55.6647 139.045C50.9829 139.045 49.1307 136.943 48.892 134.273H43.8807C44.1648 139.25 47.8807 142.034 52.2556 142.977V147.909H59.0738V143.023C63.4942 142.17 67.0284 139.614 67.0284 134.943C67.0284 128.511 61.5057 126.307 56.3466 124.955Z" fill="#005403"/>
</g>
<defs>
<clipPath id="clip0">
<rect x="4" y="107" width="40.9091" height="40.9091" fill="white"/>
</clipPath>
<clipPath id="clip1">
<rect x="35" y="107" width="40.9091" height="40.9091" fill="white"/>
</clipPath>
</defs>
</svg>
