<svg width="42" height="41" viewBox="0 0 42 41" fill="none" xmlns="http://www.w3.org/2000/svg">
<g clip-path="url(#clip0)">
<path d="M21.8011 18.0455C16.642 16.7045 14.9829 15.3296 14.9829 13.1705C14.9829 10.6932 17.267 8.95458 21.1193 8.95458C25.1647 8.95458 26.6647 10.8864 26.8011 13.7273H31.8238C31.6761 9.80685 29.2784 6.23871 24.5284 5.06821V0.0909424H17.7102V5.00003C13.3011 5.96598 9.75561 8.80682 9.75561 13.2045C9.75561 18.4545 14.1078 21.0681 20.4375 22.5909C26.1306 23.9546 27.2556 25.9432 27.2556 28.0796C27.2556 29.6364 26.1533 32.1364 21.1193 32.1364C16.4374 32.1364 14.5852 30.0342 14.3466 27.3637H9.33523C9.61935 32.3409 13.3353 35.125 17.7102 36.0682V41H24.5284V36.1136C28.9488 35.2614 32.483 32.7045 32.483 28.0341C32.483 21.6023 26.9602 19.3978 21.8011 18.0455Z" fill="#005403"/>
</g>
<defs>
<clipPath id="clip0">
<rect x="0.454544" y="0.0909424" width="40.9091" height="40.9091" fill="white"/>
</clipPath>
</defs>
</svg>
