<svg width="30" height="30" viewBox="0 0 30 30" fill="none" xmlns="http://www.w3.org/2000/svg">
<path d="M15.4839 17.4194H23.2258V16.4516H15.4839V13.5484H16.4516V12.5806H15.4839V10.6452H21.2903V9.67742H15.4839V4.35484C15.4839 1.95391 13.53 0 11.129 0C9.38374 0 7.87897 1.0346 7.18459 2.52095L7.16167 2.52591C4.69411 3.02656 2.90323 5.22051 2.90323 7.74194C2.90323 8.3515 3.00671 8.94831 3.21202 9.52054C1.24701 10.6277 0 12.7311 0 15C0 17.0579 1.01996 18.986 2.6913 20.156C2.21522 20.9052 1.93548 21.7907 1.93548 22.7419C1.93548 25.4101 4.10605 27.5806 6.77419 27.5806C6.91973 27.5806 7.06787 27.5728 7.22073 27.558C7.94512 29.0327 9.46974 30 11.129 30C13.53 30 15.4839 28.0461 15.4839 25.6452V20.3226H18.871V19.3548H15.4839V17.4194ZM14.5161 25.6452C14.5161 27.5128 12.9967 29.0323 11.129 29.0323C9.7379 29.0323 8.46821 28.1574 7.96899 26.8553L7.82652 26.4837L7.43479 26.5515C7.19758 26.5931 6.9814 26.6129 6.77419 26.6129C4.63977 26.6129 2.90323 24.8764 2.90323 22.7419C2.90323 20.6075 4.63977 18.871 6.77419 18.871V17.9032C5.40882 17.9032 4.17622 18.4743 3.29566 19.3867C1.85515 18.3996 0.967742 16.7595 0.967742 15C0.967742 12.9509 2.17057 11.0612 4.0321 10.1859L4.46565 9.9822L4.26624 9.54676C4.00398 8.9724 3.87097 8.36567 3.87097 7.74194C3.87097 5.86008 5.09128 4.20528 6.842 3.61651C6.80042 3.85703 6.77419 4.10274 6.77419 4.35484C6.77419 5.12034 6.97596 5.87331 7.35729 6.53226L8.19485 6.04791C7.89881 5.53593 7.74193 4.94999 7.74193 4.35484C7.74193 2.48716 9.26136 0.967742 11.129 0.967742C12.9967 0.967742 14.5161 2.48716 14.5161 4.35484V25.6452Z" fill="white"/>
<path d="M11.129 27.0968V28.0645C12.463 28.0645 13.5484 26.9791 13.5484 25.6452H12.5806C12.5806 26.4454 11.9293 27.0968 11.129 27.0968Z" fill="white"/>
<path d="M4.83871 22.7419H3.87097C3.87097 24.3431 5.17302 25.6452 6.77419 25.6452V24.6774C5.70675 24.6774 4.83871 23.8094 4.83871 22.7419Z" fill="white"/>
<path d="M27.0968 23.7987V21.7742C27.0968 20.4402 26.0114 19.3548 24.6774 19.3548H19.8387V20.3226H24.6774C25.4776 20.3226 26.129 20.974 26.129 21.7742V23.7987C25.5672 23.9991 25.1613 24.5314 25.1613 25.1613C25.1613 25.9615 25.8127 26.6129 26.6129 26.6129C27.4131 26.6129 28.0645 25.9615 28.0645 25.1613C28.0645 24.5314 27.6586 23.9991 27.0968 23.7987ZM26.6129 25.6452C26.3464 25.6452 26.129 25.4278 26.129 25.1613C26.129 24.8948 26.3464 24.6774 26.6129 24.6774C26.8794 24.6774 27.0968 24.8948 27.0968 25.1613C27.0968 25.4278 26.8794 25.6452 26.6129 25.6452Z" fill="white"/>
<path d="M28.5484 15.4839C27.9185 15.4839 27.3862 15.8898 27.1858 16.4516H24.1935V17.4193H27.1858C27.3862 17.9812 27.9185 18.3871 28.5484 18.3871C29.3486 18.3871 30 17.7357 30 16.9355C30 16.1352 29.3486 15.4839 28.5484 15.4839ZM28.5484 17.4193C28.2819 17.4193 28.0645 17.202 28.0645 16.9355C28.0645 16.669 28.2819 16.4516 28.5484 16.4516C28.8149 16.4516 29.0323 16.669 29.0323 16.9355C29.0323 17.202 28.8149 17.4193 28.5484 17.4193Z" fill="white"/>
<path d="M27.1858 12.5807H17.4194V13.5484H27.1858C27.3862 14.1102 27.9185 14.5161 28.5484 14.5161C29.3486 14.5161 30 13.8648 30 13.0645C30 12.2643 29.3486 11.6129 28.5484 11.6129C27.9185 11.6129 27.3862 12.0188 27.1858 12.5807ZM28.5484 12.5807C28.8149 12.5807 29.0323 12.798 29.0323 13.0645C29.0323 13.331 28.8149 13.5484 28.5484 13.5484C28.2819 13.5484 28.0645 13.331 28.0645 13.0645C28.0645 12.798 28.2819 12.5807 28.5484 12.5807Z" fill="white"/>
<path d="M27.0968 8.22579V6.20124C27.6586 6.00089 28.0645 5.46858 28.0645 4.8387C28.0645 4.03847 27.4131 3.38708 26.6129 3.38708C25.8127 3.38708 25.1613 4.03847 25.1613 4.8387C25.1613 5.46858 25.5672 6.00089 26.129 6.20124V8.22579C26.129 9.02602 25.4776 9.67741 24.6774 9.67741H22.2581V10.6451H24.6774C26.0114 10.6451 27.0968 9.55975 27.0968 8.22579ZM26.6129 4.35483C26.8794 4.35483 27.0968 4.57219 27.0968 4.8387C27.0968 5.1052 26.8794 5.32257 26.6129 5.32257C26.3464 5.32257 26.129 5.1052 26.129 4.8387C26.129 4.57219 26.3464 4.35483 26.6129 4.35483Z" fill="white"/>
<path d="M5.26399 12.522C4.32058 13.4652 4.32058 15.0005 5.26399 15.9436L5.94821 15.2594C5.38259 14.6933 5.38259 13.7724 5.94821 13.2063C6.5143 12.6397 7.43526 12.6402 8.00135 13.2063L8.68558 12.522C7.74194 11.5791 6.20716 11.5786 5.26399 12.522Z" fill="white"/>
<path d="M11.129 1.93549C9.79508 1.93549 8.70968 3.02089 8.70968 4.35484H9.67742C9.67742 3.55461 10.3288 2.90323 11.129 2.90323C11.9293 2.90323 12.5806 3.55461 12.5806 4.35484H13.5484C13.5484 3.02089 12.463 1.93549 11.129 1.93549Z" fill="white"/>
<path d="M13.0645 11.129C13.0645 9.79509 11.9791 8.70969 10.6452 8.70969V9.67743C11.4454 9.67743 12.0968 10.3288 12.0968 11.129C12.0968 11.9293 11.4454 12.5807 10.6452 12.5807V13.5484C11.9791 13.5484 13.0645 12.463 13.0645 11.129Z" fill="white"/>
<path d="M8.22581 21.2903C8.22581 22.6243 9.31121 23.7097 10.6452 23.7097V22.7419C9.84493 22.7419 9.19355 22.0906 9.19355 21.2903C9.19355 20.4901 9.84493 19.8387 10.6452 19.8387V18.871C9.31121 18.871 8.22581 19.9564 8.22581 21.2903Z" fill="white"/>
</svg>
