<svg width="150" height="150" viewBox="0 0 150 150" fill="none" xmlns="http://www.w3.org/2000/svg">
<g clip-path="url(#clip0)">
<path d="M71.7773 3.22266C59.0389 3.22266 47.0776 6.54602 36.7058 12.3653L94.3668 142.952L94.2513 143.184C122.884 133.751 143.555 106.792 143.555 75C143.555 35.3588 111.419 3.22266 71.7773 3.22266V3.22266Z" fill="#27A3FF"/>
<path d="M92.173 121.252H57.7961L57.1655 133.293C56.9595 137.226 55.9856 141.078 54.3079 144.633C59.9007 146.031 65.752 146.777 71.7773 146.777C79.8866 146.777 87.6823 145.43 94.9528 142.952C93.7214 139.881 92.9981 136.622 92.8196 133.303L92.173 121.252Z" fill="#86FDFB"/>
<path d="M62.9768 132.141H87.03C89.3486 132.141 91.4486 133.12 92.9295 134.692C92.8837 134.231 92.8448 133.768 92.8207 133.303L92.1741 121.252H57.795L57.1655 133.292C57.1404 133.768 57.1037 134.241 57.0568 134.714C58.5388 133.129 60.6468 132.141 62.9768 132.141Z" fill="#11DFEF"/>
<path d="M75 105.012L150 105.492V17.7533C150 14.6451 147.457 12.1022 144.349 12.1022C141.52 12.1022 77.2556 12.1022 37.1761 12.1022C15.0158 24.3199 0 47.905 0 75C0 85.8868 2.42844 96.2048 6.76575 105.448L75 105.012Z" fill="#2B3894"/>
<path d="M8.37822 41.3269C8.16078 41.7355 7.94449 42.1463 7.73506 42.5594V57.3658H12.0895V96.888H141.824C142.068 96.888 142.265 96.69 142.265 96.4462V41.3269H8.37822Z" fill="#E6F7FE"/>
<path d="M7.73506 42.5594V64.3147C7.73506 64.5584 7.9319 64.7552 8.17566 64.7552H141.824C142.068 64.7552 142.265 64.5584 142.265 64.3147V41.3269H8.37822C8.16078 41.7366 7.94449 42.1463 7.73506 42.5594Z" fill="#FECD0A"/>
<path d="M26.0708 41.3269H8.37822C8.16078 41.7366 7.94449 42.1463 7.73506 42.5594V64.3147C7.73506 64.5584 7.9319 64.7552 8.17566 64.7552H26.0719V41.3269H26.0708Z" fill="#FCA60D"/>
<path d="M17.3779 121.825H144.349C147.457 121.825 150 119.283 150 116.175V104.636C143.941 104.636 35.5957 104.636 6.3858 104.636C9.22852 110.899 12.9444 116.679 17.3779 121.825Z" fill="#E6F7FE"/>
<path d="M78.867 113.23C78.867 115.367 77.1355 117.098 75 117.098C72.8645 117.098 71.133 115.367 71.133 113.23C71.133 111.095 72.8645 109.363 75 109.363C77.1355 109.363 78.867 111.095 78.867 113.23Z" fill="#D5F1FE"/>
<path d="M12.8323 34.0405C12.7647 34.1389 12.6961 34.2362 12.6286 34.3346C12.4226 34.6333 12.2189 34.9331 12.0174 35.2341C11.982 35.2879 11.9476 35.3405 11.9122 35.3943C11.2587 36.3808 10.6281 37.3844 10.0227 38.4041C9.96666 38.498 9.91173 38.5918 9.8568 38.6856C9.66682 39.0072 9.47914 39.3311 9.29489 39.6561C9.27887 39.6847 9.26285 39.7145 9.24683 39.7431C8.83484 40.4698 8.43658 41.2056 8.04977 41.9483C8.04977 41.9495 8.04863 41.9506 8.04863 41.9506L142.265 41.9518V33.1444H13.4651C13.2511 33.4408 13.0417 33.7406 12.8323 34.0405Z" fill="#D5F1FE"/>
<path d="M141.582 19.8372H25.8545C21.1258 23.7785 16.9098 28.3161 13.3255 33.3355H142.265V20.5215C142.265 20.1507 141.953 19.8372 141.582 19.8372Z" fill="#615DF9"/>
<path d="M26.0708 19.8372H25.8545C21.1246 23.7785 16.9098 28.3161 13.3255 33.3355H26.0708V19.8372Z" fill="#3342AE"/>
<path d="M22.0047 28.9296C20.7138 28.9296 19.6598 27.8905 19.6598 26.5847C19.6598 25.1187 21.0022 24.0018 22.4602 24.2879C23.608 24.527 24.3484 25.5147 24.3484 26.5847C24.3484 27.863 23.3093 28.9296 22.0047 28.9296Z" fill="#FECD0A"/>
<path d="M28.4157 28.9295C27.1339 28.9295 26.0708 27.8961 26.0708 26.5847C26.0708 25.1255 27.4109 24.0006 28.8757 24.2878C30.0018 24.5281 30.7606 25.4837 30.7606 26.5847C30.7606 27.8916 29.6974 28.9295 28.4157 28.9295Z" fill="#39DF74"/>
<path d="M101.365 28.9307H36.1771C34.8816 28.9307 33.8322 27.8813 33.8322 26.5858C33.8322 25.2915 34.8816 24.2421 36.1771 24.2421H101.365C102.66 24.2421 103.71 25.2915 103.71 26.5858C103.71 27.8813 102.66 28.9307 101.365 28.9307Z" fill="#AEAEFF"/>
<path d="M89.3555 26.5858C89.3555 25.2915 90.4049 24.2421 91.7004 24.2421H36.1771C34.8816 24.2421 33.8322 25.2915 33.8322 26.5858C33.8322 27.8813 34.8816 28.9307 36.1771 28.9307H91.6992C90.4049 28.9307 89.3555 27.8813 89.3555 26.5858Z" fill="#8181FC"/>
<path d="M133.025 28.9307H110.899C109.605 28.9307 108.555 27.8813 108.555 26.5858C108.555 25.2915 109.605 24.2421 110.899 24.2421H133.025C134.32 24.2421 135.37 25.2915 135.37 26.5858C135.37 27.8813 134.319 28.9307 133.025 28.9307Z" fill="#AEAEFF"/>
<path d="M27.4647 33.1444H13.4651C11.4567 35.9368 9.64508 38.879 8.04863 41.9518H36.1771V41.8557C36.1771 37.0446 32.2769 33.1444 27.4647 33.1444Z" fill="#11DFEF"/>
<path d="M26.0708 33.1444H13.4651C11.4567 35.9368 9.64508 38.879 8.04863 41.9518H26.0708V33.1444Z" fill="#0AC6E5"/>
<path d="M126.002 52.5204H130.996C132.29 52.5204 133.341 51.471 133.341 50.1755C133.341 48.8812 132.29 47.8318 130.996 47.8318H126.002C124.706 47.8318 123.657 48.8812 123.657 50.1755C123.657 51.471 124.706 52.5204 126.002 52.5204Z" fill="#FCE395"/>
<path d="M120.796 64.7553C120.796 68.8363 117.487 72.1447 113.406 72.1447C109.325 72.1447 106.017 68.8363 106.017 64.7553C106.017 60.6743 109.325 57.3658 113.406 57.3658C117.487 57.3658 120.796 60.6743 120.796 64.7553Z" fill="#FCA60D"/>
<path d="M105.29 82.3529H121.523C122.818 82.3529 123.867 81.3035 123.867 80.008C123.867 78.7137 122.818 77.6631 121.523 77.6631H105.29C103.996 77.6631 102.945 78.7125 102.945 80.008C102.945 81.3035 103.996 82.3529 105.29 82.3529Z" fill="#11DFEF"/>
<path d="M105.29 90.5605H121.523C122.818 90.5605 123.867 89.511 123.867 88.2156C123.867 86.9212 122.818 85.8718 121.523 85.8718H105.29C103.996 85.8718 102.945 86.9212 102.945 88.2156C102.945 89.511 103.996 90.5605 105.29 90.5605Z" fill="#11DFEF"/>
<path d="M90.1245 64.7553C90.1245 68.8363 86.816 72.1447 82.7351 72.1447C78.6541 72.1447 75.3456 68.8363 75.3456 64.7553C75.3456 60.6743 78.6541 57.3658 82.7351 57.3658C86.816 57.3658 90.1245 60.6743 90.1245 64.7553Z" fill="#FCA60D"/>
<path d="M112.838 57.3899C109.022 57.6806 106.017 60.8655 106.017 64.7553C106.017 68.8363 109.325 72.1448 113.406 72.1448C116.011 72.1448 118.299 70.7966 119.615 68.7619C113.473 69.2311 109.557 62.4619 112.838 57.3899Z" fill="#F98A10"/>
<path d="M82.1663 57.3899C78.3508 57.6806 75.3456 60.8655 75.3456 64.7553C75.3456 68.8363 78.6541 72.1448 82.7351 72.1448C85.3386 72.1448 87.6274 70.7966 88.9435 68.7619C82.7888 69.2322 78.8933 62.4493 82.1663 57.3899Z" fill="#F98A10"/>
<path d="M74.6189 82.3529H90.8512C92.1455 82.3529 93.1961 81.3035 93.1961 80.008C93.1961 78.7137 92.1455 77.6631 90.8512 77.6631H74.6189C73.3234 77.6631 72.274 78.7125 72.274 80.008C72.274 81.3035 73.3234 82.3529 74.6189 82.3529Z" fill="#11DFEF"/>
<path d="M74.6189 90.5605H90.8512C92.1455 90.5605 93.1961 89.511 93.1961 88.2156C93.1961 86.9212 92.1455 85.8718 90.8512 85.8718H74.6189C73.3234 85.8718 72.274 86.9212 72.274 88.2156C72.274 89.511 73.3234 90.5605 74.6189 90.5605Z" fill="#11DFEF"/>
<path d="M57.9998 49.6514H15.2573C11.1088 49.6514 7.73506 53.0262 7.73506 57.1736V107.441C9.04083 110.013 10.4988 112.494 12.093 114.877L61.1584 145.99C62.5992 146.203 64.0537 146.376 65.522 146.503V57.1736C65.522 53.0262 62.1471 49.6514 57.9998 49.6514Z" fill="#3D4EC6"/>
<path d="M26.0708 58.4576C23.8369 58.1578 22.1123 56.2477 22.1123 53.9315C22.1123 51.9688 23.3505 50.3002 25.0866 49.6514H15.2573C11.1088 49.6514 7.73506 53.0251 7.73506 57.1736V107.441C9.04083 110.013 10.4988 112.494 12.093 114.877L26.0708 123.74V58.4576Z" fill="#3342AE"/>
<path d="M12.0895 88.496V114.875C23.0999 131.324 40.7284 142.966 61.1675 145.995C61.1675 139.713 61.1675 111.472 61.1675 88.496H12.0895Z" fill="#E6F7FE"/>
<path d="M12.0895 88.496V114.875C15.1623 119.465 18.7511 123.68 22.7715 127.438V88.496H12.0895Z" fill="#D5F1FE"/>
<path d="M15.2573 54.0059H21.6099C22.2084 54.0059 22.6936 54.4911 22.6936 55.0896C22.6936 56.527 23.8701 57.7034 25.3063 57.7034H47.9496C49.387 57.7034 50.5623 56.527 50.5623 55.0896C50.5623 54.4911 51.0475 54.0059 51.6472 54.0059H57.9998C59.7485 54.0059 61.1664 55.4238 61.1664 57.1736V88.789H46.4893C46.4893 83.3519 42.065 78.9277 36.628 78.9277C31.1909 78.9277 26.7677 83.3519 26.7677 88.789H12.0895V57.1736C12.0895 55.4238 13.5075 54.0059 15.2573 54.0059Z" fill="#FECD0A"/>
<path d="M22.7715 55.7099C22.7234 55.5108 22.6936 55.3036 22.6936 55.0908C22.6936 54.4911 22.2084 54.0059 21.6099 54.0059H15.2573C13.5075 54.0059 12.0895 55.4238 12.0895 57.1736V88.789H22.7715V55.7099Z" fill="#FCA60D"/>
<path d="M48.1167 67.678H53.1109C54.4052 67.678 55.4558 66.6286 55.4558 65.3343C55.4558 64.0388 54.4052 62.9894 53.1109 62.9894H48.1167C46.8224 62.9894 45.7718 64.0388 45.7718 65.3343C45.7718 66.6286 46.8224 67.678 48.1167 67.678Z" fill="#FCE395"/>
<path d="M46.9574 88.789C46.9574 94.4939 42.3328 99.1185 36.628 99.1185C30.9231 99.1185 26.2985 94.4939 26.2985 88.789C26.2985 83.0842 30.9231 78.4596 36.628 78.4596C42.3328 78.4596 46.9574 83.0842 46.9574 88.789Z" fill="#FCA60D"/>
<path d="M43.9785 94.4504C38.2736 94.4504 33.6491 89.8258 33.6491 84.121C33.6491 82.069 34.2499 80.1579 35.2833 78.5488C30.2147 79.2092 26.2985 83.5407 26.2985 88.789C26.2985 94.4939 30.9242 99.1184 36.628 99.1184C40.2809 99.1184 43.4875 97.221 45.3243 94.3611C44.8837 94.4184 44.4351 94.4504 43.9785 94.4504Z" fill="#F98A10"/>
<path d="M30.7514 111.784H42.5045C44.2314 111.784 45.631 110.384 45.631 108.658C45.631 106.931 44.2314 105.532 42.5045 105.532H30.7514C29.0245 105.532 27.626 106.931 27.626 108.658C27.626 110.384 29.0245 111.784 30.7514 111.784Z" fill="#FECD0A"/>
<path d="M36.3213 108.658C36.3213 106.931 37.7209 105.532 39.4478 105.532H30.7514C29.0245 105.532 27.626 106.931 27.626 108.658C27.626 110.384 29.0245 111.784 30.7514 111.784H39.4478C37.7209 111.784 36.3213 110.384 36.3213 108.658Z" fill="#FCA60D"/>
<path d="M23.8827 121.842H49.3744C50.6699 121.842 51.7193 120.792 51.7193 119.497C51.7193 118.201 50.6699 117.152 49.3744 117.152H23.8827C22.5872 117.152 21.5378 118.201 21.5378 119.497C21.5378 120.792 22.5872 121.842 23.8827 121.842Z" fill="#11DFEF"/>
<path d="M49.3744 125.631H23.8827C23.077 125.631 22.3675 126.037 21.9452 126.655C23.2635 127.927 24.6288 129.151 26.041 130.32H49.3744C50.6687 130.32 51.7193 129.27 51.7193 127.976C51.7193 126.68 50.6687 125.631 49.3744 125.631Z" fill="#11DFEF"/>
<path d="M49.3744 134.111H31.057C33.5495 135.831 36.1542 137.4 38.8618 138.8H49.3744C50.6687 138.8 51.7181 137.75 51.7181 136.455C51.7193 135.16 50.6687 134.111 49.3744 134.111Z" fill="#11DFEF"/>
<g clip-path="url(#clip1)">
<path d="M25.3466 124.955C20.1874 123.614 18.5284 122.239 18.5284 120.08C18.5284 117.602 20.8125 115.864 24.6647 115.864C28.7102 115.864 30.2102 117.795 30.3465 120.636H35.3693C35.2215 116.716 32.8239 113.148 28.0738 111.977V107H21.2556V111.909C16.8465 112.875 13.3011 115.716 13.3011 120.114C13.3011 125.364 17.6533 127.977 23.9829 129.5C29.6761 130.864 30.8011 132.852 30.8011 134.989C30.8011 136.545 29.6988 139.045 24.6647 139.045C19.9829 139.045 18.1307 136.943 17.892 134.273H12.8807C13.1648 139.25 16.8807 142.034 21.2556 142.977V147.909H28.0738V143.023C32.4942 142.17 36.0284 139.614 36.0284 134.943C36.0284 128.511 30.5057 126.307 25.3466 124.955Z" fill="#005403"/>
</g>
<g clip-path="url(#clip2)">
<path d="M59.3466 125.955C54.1874 124.614 52.5284 123.239 52.5284 121.08C52.5284 118.602 54.8125 116.864 58.6647 116.864C62.7102 116.864 64.2102 118.795 64.3465 121.636H69.3693C69.2215 117.716 66.8239 114.148 62.0738 112.977V108H55.2556V112.909C50.8465 113.875 47.3011 116.716 47.3011 121.114C47.3011 126.364 51.6533 128.977 57.9829 130.5C63.6761 131.864 64.8011 133.852 64.8011 135.989C64.8011 137.545 63.6988 140.045 58.6647 140.045C53.9829 140.045 52.1307 137.943 51.892 135.273H46.8807C47.1648 140.25 50.8807 143.034 55.2556 143.977V148.909H62.0738V144.023C66.4942 143.17 70.0284 140.614 70.0284 135.943C70.0284 129.511 64.5057 127.307 59.3466 125.955Z" fill="#005403"/>
</g>
<g clip-path="url(#clip3)">
<path d="M93.3465 125.955C88.1874 124.614 86.5284 123.239 86.5284 121.08C86.5284 118.602 88.8125 116.864 92.6647 116.864C96.7102 116.864 98.2101 118.795 98.3465 121.636H103.369C103.222 117.716 100.824 114.148 96.0738 112.977V108H89.2556V112.909C84.8465 113.875 81.3011 116.716 81.3011 121.114C81.3011 126.364 85.6533 128.977 91.9829 130.5C97.6761 131.864 98.8011 133.852 98.8011 135.989C98.8011 137.545 97.6988 140.045 92.6647 140.045C87.9829 140.045 86.1307 137.943 85.892 135.273H80.8807C81.1648 140.25 84.8807 143.034 89.2556 143.977V148.909H96.0738V144.023C100.494 143.17 104.028 140.614 104.028 135.943C104.028 129.511 98.5057 127.307 93.3465 125.955Z" fill="#005403"/>
</g>
</g>
<defs>
<clipPath id="clip0">
<rect width="150" height="150" fill="white"/>
</clipPath>
<clipPath id="clip1">
<rect x="4" y="107" width="40.9091" height="40.9091" fill="white"/>
</clipPath>
<clipPath id="clip2">
<rect x="38" y="108" width="40.9091" height="40.9091" fill="white"/>
</clipPath>
<clipPath id="clip3">
<rect x="72" y="108" width="40.9091" height="40.9091" fill="white"/>
</clipPath>
</defs>
</svg>
