<svg width="150" height="150" viewBox="0 0 150 150" fill="none" xmlns="http://www.w3.org/2000/svg">
<g clip-path="url(#clip0)">
<path d="M139.318 110.108C144.09 100.502 146.777 89.677 146.777 78.2227C146.777 38.5815 114.641 6.44531 75 6.44531C35.3588 6.44531 3.22266 38.5815 3.22266 78.2227C3.22266 89.677 5.90973 100.502 10.6819 110.108H139.318Z" fill="#2B3894"/>
<path d="M10.5366 75.4669V109.815C22.2221 133.615 46.6965 150 75 150C103.304 150 127.778 133.615 139.463 109.815V75.4681H10.5366V75.4669Z" fill="#E6F7FE"/>
<path d="M10.5366 75.4669V109.815C15.2092 119.332 21.928 127.661 30.1174 134.233V75.4669H10.5366Z" fill="#86FDFB"/>
<path d="M10.5366 13.7775H139.463V21.4725H10.5366V13.7775Z" fill="#D5F1FE"/>
<path d="M44.8013 21.4725H10.5366V13.7775H37.5515C41.5558 13.7775 44.8013 17.2222 44.8013 21.4725Z" fill="#11DFEF"/>
<path d="M10.5366 13.7775H30.1174V21.4725H10.5366V13.7775Z" fill="#0AC6E5"/>
<path d="M139.07 0C136.582 0 14.5512 0 10.9303 0C10.7128 0 10.5366 0.176239 10.5366 0.393677V14.2239H139.463V0.393677C139.463 0.176239 139.287 0 139.07 0Z" fill="#615DF9"/>
<path d="M33.633 0C20.8408 0 11.8721 0 10.9303 0C10.7128 0 10.5366 0.176239 10.5366 0.393677V14.2239H30.1174V3.51562C30.1174 1.58157 31.7001 0 33.633 0Z" fill="#3342AE"/>
<path d="M21.1819 9.90497C19.5683 9.90497 18.2522 8.59004 18.2522 6.97528C18.2522 5.57796 19.2341 4.37976 20.6108 4.10052C22.403 3.74004 24.1116 5.1179 24.1116 6.97528C24.1116 8.60263 22.7806 9.90497 21.1819 9.90497Z" fill="#F948B4"/>
<path d="M30.1174 9.90494C28.5267 9.90494 27.1877 8.60947 27.1877 6.97525C27.1877 5.12245 28.8918 3.73886 30.6885 4.10049C32.1075 4.38888 33.0471 5.62828 33.0471 6.97525C33.0471 8.58887 31.7322 9.90494 30.1174 9.90494Z" fill="#FECD0A"/>
<path d="M39.053 9.90487C37.4622 9.90487 36.1233 8.6094 36.1233 6.97518C36.1233 5.11323 37.8353 3.73993 39.624 4.10042C41.0431 4.38881 41.9827 5.62935 41.9827 6.97518C41.9827 8.5888 40.6677 9.90487 39.053 9.90487Z" fill="#39DF74"/>
<path d="M130.998 9.30853H115.568C114.354 9.30853 113.371 8.32434 113.371 7.11127C113.371 5.89819 114.354 4.914 115.568 4.914H130.998C132.211 4.914 133.195 5.89819 133.195 7.11127C133.195 8.32434 132.211 9.30853 130.998 9.30853Z" fill="#AEAEFF"/>
<path d="M104.529 9.30853H50.6676C49.4545 9.30853 48.4703 8.32434 48.4703 7.11127C48.4703 5.89819 49.4545 4.914 50.6676 4.914H104.529C105.743 4.914 106.726 5.89819 106.726 7.11127C106.726 8.32434 105.743 9.30853 104.529 9.30853Z" fill="#AEAEFF"/>
<path d="M93.0016 7.11127C93.0016 5.89819 93.9857 4.914 95.1988 4.914H50.6676C49.4545 4.914 48.4703 5.89819 48.4703 7.11127C48.4703 8.32548 49.4545 9.30853 50.6676 9.30853H95.1988C93.9857 9.30853 93.0016 8.32548 93.0016 7.11127Z" fill="#8181FC"/>
<path d="M10.5366 21.4726H139.463V78.249H10.5366V21.4726Z" fill="#4FBBFF"/>
<path d="M10.5366 78.249H75.4704C76.1032 76.212 75.6935 74.1303 72.805 72.6448C64.9681 68.6165 76.9066 63.1966 68.9964 59.9739C64.5607 58.1669 63.9004 54.9305 64.1773 52.4357C64.3696 50.6997 63.1039 49.1593 61.3655 48.9819C54.0917 48.2403 52.8957 43.0504 52.8248 40.0498C52.7939 38.8024 52.0443 37.6751 50.8839 37.2174C38.8229 32.4646 44.8013 21.4726 44.8013 21.4726H10.5366V78.249Z" fill="#27A3FF"/>
<path d="M139.463 78.2489V39.0598C135.445 41.621 130.123 43.9601 123.895 44.1375C122.04 47.2515 118.639 49.3434 114.757 49.3434C108.352 49.3434 103.33 43.6706 104.23 37.2356C100.768 34.6538 91.9647 26.4026 78.1082 26.5376C62.0647 26.6933 53.8193 37.8776 49.6571 40.7443C49.6571 40.7443 30.6988 57.6301 10.5366 40.995V78.2489H139.463Z" fill="#27A3FF"/>
<path d="M72.805 72.6448C64.9681 68.6164 76.9066 63.1965 68.9964 59.9739C64.5607 58.1668 63.9004 54.9305 64.1773 52.4356C64.3696 50.6996 63.1039 49.1592 61.3655 48.9818C54.0917 48.2402 52.8957 43.0503 52.8236 40.0497C52.8099 39.4798 52.6451 38.935 52.359 38.467C51.3096 39.4237 50.4147 40.2225 49.6571 40.7444C49.6571 40.7444 30.6988 57.6301 10.5366 40.995V78.2489H75.4704C76.1032 76.2119 75.6935 74.1302 72.805 72.6448Z" fill="#0080F4"/>
<path d="M139.463 78.249V60.87L131.87 53.2757C128.893 50.299 124.065 50.299 121.089 53.2757L115.8 58.5651C114.499 59.8663 112.389 59.8663 111.089 58.5651L89.3005 36.7767C86.0115 33.4877 80.6786 33.4877 77.3895 36.7767L49.3183 64.8479C48.2357 65.9305 46.4802 65.9305 45.3987 64.8479L39.0255 58.4759C35.6369 55.0873 30.1437 55.0873 26.7551 58.4759L10.5366 74.6944V78.249H139.463Z" fill="#A2EC00"/>
<path d="M72.805 72.6448C64.9681 68.6165 76.9066 63.1966 68.9964 59.9739C64.5607 58.1669 63.9004 54.9305 64.1773 52.4357C64.2574 51.709 64.0801 51.0178 63.7219 50.4456L49.3183 64.8479C48.2357 65.9306 46.4802 65.9306 45.3987 64.8479L39.0255 58.4747C35.6369 55.0873 30.1437 55.0873 26.7551 58.4747L10.5366 74.6944V78.249H75.4704C76.1032 76.2119 75.6935 74.1302 72.805 72.6448Z" fill="#00C82F"/>
<path d="M139.463 78.2488V64.1978C131.766 71.7772 119.469 77.8769 103.672 65.7095C61.8713 33.5139 54.4636 103.092 10.5366 63.2399V78.2488H139.463Z" fill="#00C82F"/>
<path d="M72.805 72.6449C65.1444 68.7069 76.3767 63.4392 69.4965 60.1948C52.272 68.723 39.1537 89.2022 10.5366 63.2401V78.249H75.4704C76.1032 76.212 75.6935 74.1303 72.805 72.6449Z" fill="#02AD22"/>
<path d="M129.444 86.0298H20.5227C19.4378 86.0298 18.5589 86.9098 18.5589 87.9947V102.806C18.5589 103.891 19.4378 104.769 20.5227 104.769H129.444C130.529 104.769 131.409 103.891 131.409 102.806V87.9947C131.409 86.9098 130.529 86.0298 129.444 86.0298Z" fill="#4FBBFF"/>
<path d="M28.2269 102.806V87.9947C28.2269 86.9098 29.1058 86.0298 30.1907 86.0298H20.5227C19.4378 86.0298 18.5589 86.9098 18.5589 87.9947V102.806C18.5589 103.891 19.4378 104.769 20.5227 104.769H30.1907C29.1058 104.769 28.2269 103.891 28.2269 102.806Z" fill="#27A3FF"/>
<path d="M48.6832 112.474H20.7344C19.5374 112.474 18.5589 113.452 18.5589 114.649V122.571C26.8398 133.096 38.0047 141.244 50.8587 145.834V114.649C50.8598 113.452 49.8802 112.474 48.6832 112.474Z" fill="#FECD0A"/>
<path d="M29.9675 114.649C29.9675 113.452 30.9471 112.474 32.143 112.474H20.7344C19.5374 112.474 18.5589 113.452 18.5589 114.649V122.571C21.9143 126.836 25.7435 130.71 29.9675 134.117V114.649Z" fill="#FCA60D"/>
<path d="M36.9633 124.75H32.8972C31.279 124.75 29.9675 123.438 29.9675 121.82C29.9675 120.202 31.279 118.89 32.8972 118.89H36.9633C38.5815 118.89 39.893 120.202 39.893 121.82C39.893 123.438 38.5815 124.75 36.9633 124.75Z" fill="#FCA60D"/>
<path d="M42.5903 137.074H33.9043C36.1874 138.67 38.5677 140.14 41.0351 141.468H42.5903C43.8046 141.468 44.7876 140.484 44.7876 139.271C44.7876 138.057 43.8046 137.074 42.5903 137.074Z" fill="#FCE395"/>
<path d="M42.5903 129.08H27.269C26.4851 129.08 25.7973 129.493 25.4093 130.112C26.627 131.277 27.887 132.398 29.1836 133.475H42.5903C43.8034 133.475 44.7876 132.492 44.7876 131.277C44.7876 130.064 43.8046 129.08 42.5903 129.08Z" fill="#FCE395"/>
<path d="M88.9584 112.474H61.0085C59.8125 112.474 58.8329 113.452 58.8329 114.649V148.171C64.0297 149.367 69.4405 150 75 150C80.5481 150 85.9474 149.369 91.1339 148.178V114.649C91.1339 113.452 90.1554 112.474 88.9584 112.474Z" fill="#FECD0A"/>
<path d="M70.2427 114.649C70.2427 113.452 71.2212 112.474 72.4182 112.474H61.0085C59.8125 112.474 58.8329 113.452 58.8329 114.649V148.171C62.534 149.024 66.3471 149.583 70.2427 149.839V114.649Z" fill="#FCA60D"/>
<path d="M77.2373 124.75H73.1724C71.5542 124.75 70.2427 123.438 70.2427 121.82C70.2427 120.202 71.5542 118.89 73.1724 118.89H77.2373C78.8555 118.89 80.167 120.202 80.167 121.82C80.167 123.438 78.8555 124.75 77.2373 124.75Z" fill="#FCA60D"/>
<path d="M82.8655 141.468H67.5442C66.3311 141.468 65.3469 140.484 65.3469 139.271C65.3469 138.057 66.3311 137.074 67.5442 137.074H82.8655C84.0786 137.074 85.0628 138.057 85.0628 139.271C85.0628 140.484 84.0786 141.468 82.8655 141.468Z" fill="#FCE395"/>
<path d="M82.8655 133.475H67.5442C66.3311 133.475 65.3469 132.492 65.3469 131.277C65.3469 130.064 66.3311 129.08 67.5442 129.08H82.8655C84.0786 129.08 85.0628 130.064 85.0628 131.277C85.0628 132.492 84.0786 133.475 82.8655 133.475Z" fill="#FCE395"/>
<path d="M131.409 122.611V114.649C131.409 113.452 130.429 112.473 129.232 112.473H101.284C100.087 112.473 99.1081 113.452 99.1081 114.649V145.846C111.96 141.264 123.124 133.126 131.409 122.611Z" fill="#FECD0A"/>
<path d="M110.517 114.649C110.517 113.452 111.496 112.474 112.692 112.474H101.284C100.088 112.474 99.1081 113.452 99.1081 114.649V145.846C103.085 144.428 106.899 142.669 110.517 140.606V114.649Z" fill="#FCA60D"/>
<path d="M117.513 124.75H113.446C111.829 124.75 110.517 123.438 110.517 121.82C110.517 120.202 111.829 118.89 113.446 118.89H117.513C119.131 118.89 120.442 120.202 120.442 121.82C120.442 123.438 119.131 124.75 117.513 124.75Z" fill="#FCA60D"/>
<path d="M107.819 137.074C106.605 137.074 105.622 138.057 105.622 139.271C105.622 140.484 106.605 141.468 107.819 141.468H108.965C111.432 140.14 113.813 138.67 116.096 137.074H107.819Z" fill="#FCE395"/>
<path d="M123.14 129.08H107.819C106.605 129.08 105.622 130.064 105.622 131.277C105.622 132.492 106.605 133.475 107.819 133.475H120.816C122.2 132.326 123.539 131.125 124.832 129.877C124.429 129.39 123.822 129.08 123.14 129.08Z" fill="#FCE395"/>
<path d="M94.8418 56.916H54.3491C53.5824 56.916 52.961 57.5374 52.961 58.3042V63.0741C52.961 63.8408 53.5824 64.4623 54.3491 64.4623H94.8418V56.916Z" fill="#E6F7FE"/>
<path d="M66.4696 63.0741V58.3042C66.4696 57.5374 67.091 56.916 67.8566 56.916H54.3491C53.5824 56.916 52.961 57.5374 52.961 58.3042V63.0741C52.961 63.8408 53.5824 64.4623 54.3491 64.4623H67.8566C67.091 64.4623 66.4696 63.8408 66.4696 63.0741Z" fill="#86FDFB"/>
<path d="M100.849 56.916H94.2558V64.4623H100.849C101.614 64.4623 102.236 63.8408 102.236 63.0741V58.3042C102.236 57.5374 101.614 56.916 100.849 56.916Z" fill="#F948B4"/>
<path d="M125.842 38.7119C125.842 44.8345 120.878 49.7966 114.757 49.7966C108.635 49.7966 103.672 44.8345 103.672 38.7119C103.672 32.5904 108.635 27.6271 114.757 27.6271C120.878 27.6271 125.842 32.5904 125.842 38.7119Z" fill="#FECD0A"/>
<path d="M113.183 27.7405C107.807 28.5049 103.672 33.1238 103.672 38.7119C103.672 49.4087 117.36 53.8593 123.684 45.282C113.806 46.6862 107.469 35.4916 113.183 27.7405Z" fill="#FCA60D"/>
<g clip-path="url(#clip1)">
<path d="M26.8011 127.045C21.642 125.705 19.9829 124.33 19.9829 122.17C19.9829 119.693 22.267 117.955 26.1193 117.955C30.1647 117.955 31.6647 119.886 31.8011 122.727H36.8238C36.6761 118.807 34.2784 115.239 29.5284 114.068V109.091H22.7102V114C18.3011 114.966 14.7556 117.807 14.7556 122.205C14.7556 127.455 19.1078 130.068 25.4375 131.591C31.1306 132.955 32.2556 134.943 32.2556 137.08C32.2556 138.636 31.1533 141.136 26.1193 141.136C21.4374 141.136 19.5852 139.034 19.3466 136.364H14.3352C14.6194 141.341 18.3353 144.125 22.7102 145.068V150H29.5284V145.114C33.9488 144.261 37.483 141.705 37.483 137.034C37.483 130.602 31.9602 128.398 26.8011 127.045Z" fill="#005403"/>
</g>
</g>
<defs>
<clipPath id="clip0">
<rect width="150" height="150" fill="white"/>
</clipPath>
<clipPath id="clip1">
<rect x="5.45454" y="109.091" width="40.9091" height="40.9091" fill="white"/>
</clipPath>
</defs>
</svg>
