<svg width="185" height="38" viewBox="0 0 185 38" fill="none" xmlns="http://www.w3.org/2000/svg">
<g filter="url(#filter0_d)">
<g filter="url(#filter1_d)">
<line id="LineDown" x1="11" y1="19.5" x2="176" y2="19.5" stroke="white"/>
<line id="LineTop" x1="4" y1="4.5" x2="169" y2="4.5" stroke="white"/>
<path d="M11.2 15.88C9.416 16.04 7.936 16.12 6.76 16.12C5.976 16.12 5.4 15.936 5.032 15.568C4.664 15.2 4.48 14.624 4.48 13.84V10C4.48 9.16 4.668 8.552 5.044 8.176C5.428 7.792 6.04 7.6 6.88 7.6H11.2V9.28H7.36C6.88 9.28 6.64 9.52 6.64 10V13.84C6.64 14.024 6.692 14.172 6.796 14.284C6.908 14.388 7.048 14.44 7.216 14.44C7.384 14.44 7.568 14.44 7.768 14.44C7.968 14.432 8.176 14.424 8.392 14.416C8.608 14.408 8.824 14.4 9.04 14.392C9.264 14.384 9.548 14.368 9.892 14.344C10.244 14.32 10.68 14.292 11.2 14.26V15.88ZM11.2014 7.6H13.4814L15.4614 11.68L17.4414 7.6H19.7214L16.5414 13.78V16H14.3814V13.78L11.2014 7.6ZM20.2005 7.6H25.0005C25.7845 7.6 26.3605 7.78 26.7285 8.14C27.0965 8.492 27.2805 9.032 27.2805 9.76C27.2805 10.24 27.1765 10.632 26.9685 10.936C26.7605 11.232 26.5045 11.44 26.2005 11.56C26.8485 11.736 27.2885 12.168 27.5205 12.856C27.6005 13.104 27.6405 13.392 27.6405 13.72C27.6405 14.504 27.4565 15.08 27.0885 15.448C26.7205 15.816 26.1445 16 25.3605 16H20.2005V7.6ZM25.4805 13.36C25.4805 12.88 25.2405 12.64 24.7605 12.64H22.3605V14.32H24.7605C25.2405 14.32 25.4805 14.08 25.4805 13.6V13.36ZM25.1205 10C25.1205 9.52 24.8805 9.28 24.4005 9.28H22.3605V10.96H24.4005C24.8805 10.96 25.1205 10.72 25.1205 10.24V10ZM35.38 16H28.72V7.6H35.38V9.28H30.88V10.9H34.42V12.58H30.88V14.32H35.38V16ZM36.3372 7.6H41.3772C42.2172 7.6 42.8252 7.792 43.2012 8.176C43.5852 8.552 43.7772 9.16 43.7772 10V11.08C43.7772 11.744 43.6652 12.26 43.4412 12.628C43.2252 12.996 42.8772 13.24 42.3972 13.36L43.8972 16H41.5572L40.1772 13.48H38.4972V16H36.3372V7.6ZM41.6172 10C41.6172 9.52 41.3772 9.28 40.8972 9.28H38.4972V11.8H40.8972C41.3772 11.8 41.6172 11.56 41.6172 11.08V10ZM52.2939 16H50.1339V12.58H47.1339V16H44.9739V7.6H47.1339V10.9H50.1339V7.6H52.2939V16ZM55.2395 16H52.8995L56.0795 7.6H58.4795L61.6595 16H59.3195L58.7795 14.5H55.7795L55.2395 16ZM56.3195 12.94H58.2395L57.2795 10.12L56.3195 12.94ZM69.5791 16H67.2991L64.4191 10.96V16H62.2591V7.6H64.5391L67.4191 12.64V7.6H69.5791V16ZM75.7047 7.6C76.6087 7.6 77.2927 7.836 77.7567 8.308C78.2287 8.772 78.4647 9.456 78.4647 10.36V13.24C78.4647 14.144 78.2287 14.832 77.7567 15.304C77.2927 15.768 76.6087 16 75.7047 16H71.0247V7.6H75.7047ZM76.3047 10.36C76.3047 9.64 75.9447 9.28 75.2247 9.28H73.1847V14.32H75.2247C75.9447 14.32 76.3047 13.96 76.3047 13.24V10.36ZM92.9767 7.6L94.4167 13L95.6767 7.6H98.0167L95.7367 16H93.4567L92.0167 10.78L90.5767 16H88.2967L86.0167 7.6H88.3567L89.6167 13L91.0567 7.6H92.9767ZM116.611 7.6H121.411C122.195 7.6 122.771 7.78 123.139 8.14C123.507 8.492 123.691 9.032 123.691 9.76C123.691 10.24 123.587 10.632 123.379 10.936C123.171 11.232 122.915 11.44 122.611 11.56C123.259 11.736 123.699 12.168 123.931 12.856C124.011 13.104 124.051 13.392 124.051 13.72C124.051 14.504 123.867 15.08 123.499 15.448C123.131 15.816 122.555 16 121.771 16H116.611V7.6ZM121.891 13.36C121.891 12.88 121.651 12.64 121.171 12.64H118.771V14.32H121.171C121.651 14.32 121.891 14.08 121.891 13.6V13.36ZM121.531 10C121.531 9.52 121.291 9.28 120.811 9.28H118.771V10.96H120.811C121.291 10.96 121.531 10.72 121.531 10.24V10ZM128.476 14.26C130.668 14.38 132.152 14.44 132.928 14.44C133.112 14.44 133.256 14.388 133.36 14.284C133.472 14.172 133.528 14.024 133.528 13.84V12.76H130.768C129.928 12.76 129.316 12.572 128.932 12.196C128.556 11.812 128.368 11.2 128.368 10.36V10C128.368 9.16 128.556 8.552 128.932 8.176C129.316 7.792 129.928 7.6 130.768 7.6H134.98V9.28H131.248C130.768 9.28 130.528 9.52 130.528 10V10.24C130.528 10.72 130.768 10.96 131.248 10.96H133.408C134.192 10.96 134.768 11.144 135.136 11.512C135.504 11.88 135.688 12.456 135.688 13.24V13.84C135.688 14.624 135.504 15.2 135.136 15.568C134.768 15.936 134.192 16.12 133.408 16.12C133 16.12 132.568 16.112 132.112 16.096L131.008 16.048C130.192 16.008 129.348 15.952 128.476 15.88V14.26ZM140.249 16H138.089V9.28H135.569V7.6H142.769V9.28H140.249V16ZM149.011 7.6H151.171V13.72C151.171 14.56 150.979 15.172 150.595 15.556C150.219 15.932 149.611 16.12 148.771 16.12H146.011C145.171 16.12 144.559 15.932 144.175 15.556C143.799 15.172 143.611 14.56 143.611 13.72V7.6H145.771V13.72C145.771 14.2 146.011 14.44 146.491 14.44H148.291C148.771 14.44 149.011 14.2 149.011 13.72V7.6ZM157.291 7.6C158.195 7.6 158.879 7.836 159.343 8.308C159.815 8.772 160.051 9.456 160.051 10.36V13.24C160.051 14.144 159.815 14.832 159.343 15.304C158.879 15.768 158.195 16 157.291 16H152.611V7.6H157.291ZM157.891 10.36C157.891 9.64 157.531 9.28 156.811 9.28H154.771V14.32H156.811C157.531 14.32 157.891 13.96 157.891 13.24V10.36ZM165.207 16H160.887V14.32H161.967V9.28H160.887V7.6H165.207V9.28H164.127V14.32H165.207V16ZM171.686 9.88C171.686 9.4 171.446 9.16 170.966 9.16H168.926C168.446 9.16 168.206 9.4 168.206 9.88V13.72C168.206 14.2 168.446 14.44 168.926 14.44H170.966C171.446 14.44 171.686 14.2 171.686 13.72V9.88ZM173.846 13.72C173.846 14.56 173.654 15.172 173.27 15.556C172.894 15.932 172.286 16.12 171.446 16.12H168.446C167.606 16.12 166.994 15.932 166.61 15.556C166.234 15.172 166.046 14.56 166.046 13.72V9.88C166.046 9.04 166.234 8.432 166.61 8.056C166.994 7.672 167.606 7.48 168.446 7.48H171.446C172.286 7.48 172.894 7.672 173.27 8.056C173.654 8.432 173.846 9.04 173.846 9.88V13.72Z" fill="url(#paint0_linear)"/>
<path d="M114.525 10.5H107.675L114.025 0.499969H106.025L98.525 15.5H104.425L98.525 29.5L114.525 10.5Z" fill="#F2AE00"/>
<path d="M108.025 0.499969H106.025L98.525 15.5H100.525L108.025 0.499969Z" fill="#700151"/>
<path d="M112.025 10.5L100.025 24.75L98.0251 29.5L114.025 10.5H112.025Z" fill="#FFE400"/>
<path d="M98.525 30C98.425 30 98.325 30 98.275 29.95C98.075 29.8 97.975 29.55 98.075 29.35L103.675 16H98.525C98.375 16 98.175 15.9 98.075 15.75C97.975 15.6 97.975 15.4 98.075 15.25L105.575 0.25002C105.675 0.10002 105.825 0 106.025 0H114.025C114.225 0 114.375 0.10002 114.475 0.25002C114.575 0.40002 114.575 0.6 114.475 0.75L108.625 10H114.525C114.725 10 114.875 10.1 114.975 10.3C115.075 10.5 115.025 10.7 114.925 10.85L98.925 29.85C98.825 29.95 98.675 30 98.525 30ZM99.325 15H104.425C104.575 15 104.725 15.1 104.825 15.2C104.925 15.35 104.925 15.5 104.875 15.65L100.275 26.65L113.475 11H107.675C107.475 11 107.325 10.9 107.225 10.75C107.125 10.6 107.125 10.4 107.225 10.25L113.125 1.00002H106.325L99.325 15Z" fill="#030200"/>
</g>
</g>
<defs>
<filter id="filter0_d" x="0" y="0" width="189" height="38" filterUnits="userSpaceOnUse" color-interpolation-filters="sRGB">
<feFlood flood-opacity="0" result="BackgroundImageFix"/>
<feColorMatrix in="SourceAlpha" type="matrix" values="0 0 0 0 0 0 0 0 0 0 0 0 0 0 0 0 0 0 127 0"/>
<feOffset dy="4"/>
<feGaussianBlur stdDeviation="2"/>
<feColorMatrix type="matrix" values="0 0 0 0 0 0 0 0 0 0 0 0 0 0 0 0 0 0 0.25 0"/>
<feBlend mode="normal" in2="BackgroundImageFix" result="effect1_dropShadow"/>
<feBlend mode="normal" in="SourceGraphic" in2="effect1_dropShadow" result="shape"/>
</filter>
<filter id="filter1_d" x="0" y="0" width="180" height="38" filterUnits="userSpaceOnUse" color-interpolation-filters="sRGB">
<feFlood flood-opacity="0" result="BackgroundImageFix"/>
<feColorMatrix in="SourceAlpha" type="matrix" values="0 0 0 0 0 0 0 0 0 0 0 0 0 0 0 0 0 0 127 0"/>
<feOffset dy="4"/>
<feGaussianBlur stdDeviation="2"/>
<feColorMatrix type="matrix" values="0 0 0 0 0 0 0 0 0 0 0 0 0 0 0 0 0 0 0.25 0"/>
<feBlend mode="normal" in2="BackgroundImageFix" result="effect1_dropShadow"/>
<feBlend mode="normal" in="SourceGraphic" in2="effect1_dropShadow" result="shape"/>
</filter>
<linearGradient id="paint0_linear" x1="94.5" y1="5" x2="94.5" y2="19" gradientUnits="userSpaceOnUse">
<stop stop-color="#F2DA00"/>
<stop offset="0.354167" stop-color="#F2AE00"/>
<stop offset="0.645833" stop-color="#B00780"/>
<stop offset="1" stop-color="#700151"/>
</linearGradient>
</defs>
<animateTransform href="#LineDown"
				attributeName="transform"
				type="skewX"
				from="0"
				to="30"
				dur="3s"
				fill="freeze"
				begin="2s"

	/>
<animateTransform href="#LineTop"
				attributeName="transform"
				type="skewX"
				from="160"
				to="130"
				dur="3s"
				fill="freeze"
				begin="2s"

	/>
</svg>
