<svg width="20" height="20" viewBox="0 0 20 20" fill="none" xmlns="http://www.w3.org/2000/svg">
<path d="M10 0C4.47721 0 0 4.47721 0 10C0 15.5228 4.47721 20 10 20C15.5228 20 20 15.5228 20 10C19.9938 4.47982 15.5202 0.00618492 10 0ZM10 19.3333C4.84538 19.3333 0.666667 15.1546 0.666667 10C0.666667 4.84538 4.84538 0.666667 10 0.666667C15.1546 0.666667 19.3333 4.84538 19.3333 10C19.3275 15.1522 15.1522 19.3275 10 19.3333Z" fill="white"/>
<path d="M14.6667 6H5.33333C5.14925 6 5 6.14925 5 6.33333V13.6667C5 13.8507 5.14925 14 5.33333 14H14.6667C14.8507 14 15 13.8507 15 13.6667V6.33333C15 6.14925 14.8507 6 14.6667 6ZM13.7666 6.66667L10 9.89437L6.2334 6.66667H13.7666ZM5.66667 13.3333V7.05794L9.78304 10.5863C9.90771 10.693 10.0916 10.693 10.2163 10.5863L14.3333 7.05794V13.3333H5.66667Z" fill="white"/>
</svg>
