<svg width="26" height="28" viewBox="0 0 26 28" fill="none" xmlns="http://www.w3.org/2000/svg">
<g filter="url(#filter0_d)">
<g clip-path="url(#clip0)">
<path d="M4.51005 10.8716L20.51 19.8716C20.82 20.0456 21.198 20.0416 21.504 19.8636C21.812 19.6836 22 19.3556 22 18.9996V0.999655C22 0.643658 21.812 0.315657 21.504 0.135658C21.348 0.0456581 21.174 -0.000341415 21 -0.000341415C20.832 -0.000341415 20.662 0.0416584 20.51 0.127659L4.51005 9.12763C4.19605 9.30563 4.00006 9.63763 4.00006 9.99963C4.00006 10.3616 4.19605 10.6936 4.51005 10.8716Z" fill="black"/>
</g>
</g>
<defs>
<filter id="filter0_d" x="-1" y="0" width="28" height="28" filterUnits="userSpaceOnUse" color-interpolation-filters="sRGB">
<feFlood flood-opacity="0" result="BackgroundImageFix"/>
<feColorMatrix in="SourceAlpha" type="matrix" values="0 0 0 0 0 0 0 0 0 0 0 0 0 0 0 0 0 0 127 0"/>
<feOffset dy="4"/>
<feGaussianBlur stdDeviation="2"/>
<feColorMatrix type="matrix" values="0 0 0 0 0 0 0 0 0 0 0 0 0 0 0 0 0 0 0.25 0"/>
<feBlend mode="normal" in2="BackgroundImageFix" result="effect1_dropShadow"/>
<feBlend mode="normal" in="SourceGraphic" in2="effect1_dropShadow" result="shape"/>
</filter>
<clipPath id="clip0">
<rect x="23" y="20" width="20" height="20" transform="rotate(-180 23 20)" fill="white"/>
</clipPath>
</defs>
</svg>
