<svg width="50" height="70" viewBox="0 0 50 70" fill="none" xmlns="http://www.w3.org/2000/svg">
<path d="M48.5187 24.4999H28.4066L47.0507 1.16656H23.5621L1.54144 36.1666H18.8643L1.54144 68.8333L48.5187 24.4999Z" fill="#F2AE00"/>
<path d="M29.4342 1.16656H23.5621L1.54144 36.1665H7.41355L29.4342 1.16656Z" fill="#F2AE00"/>
<path d="M41.1786 24.4999L5.94563 57.7499L0.0735168 68.8333L47.0507 24.4999H41.1786Z" fill="#FFE400"/>
<path d="M1.54149 70C1.24782 70 0.954328 70 0.807409 69.8834C0.22025 69.5334 -0.0734164 68.95 0.220249 68.4834L16.6623 37.3334H1.54149C1.10107 37.3334 0.513915 37.1 0.220249 36.75C-0.0734164 36.4 -0.0734164 35.9334 0.220249 35.5834L22.2409 0.583379C22.5345 0.233379 22.975 0 23.5621 0H47.0507C47.6379 0 48.0783 0.233379 48.372 0.583379C48.6656 0.933379 48.6656 1.4 48.372 1.75L31.1959 23.3334H48.5187C49.1059 23.3334 49.5463 23.5668 49.8399 24.0334C50.1336 24.5 49.9867 24.9668 49.6932 25.3168L2.71581 69.65C2.42231 69.8834 1.9819 70 1.54149 70ZM3.8903 35H18.8643C19.3047 35 19.7451 35.2334 20.0388 35.4666C20.3325 35.8166 20.3325 36.1666 20.1856 36.5166L6.67952 62.1832L45.4358 25.6666H28.4065C27.8193 25.6666 27.3789 25.4332 27.0852 25.0832C26.7916 24.7332 26.7916 24.2666 27.0852 23.9166L44.4082 2.33338H24.4429L3.8903 35Z" fill="#F2AE00"/>
</svg>
